<svg xmlns="http://www.w3.org/2000/svg" width="73.903" height="47.531" viewBox="0 0 73.903 47.531">
  <g id="Group_12" data-name="Group 12" transform="translate(-694.265 -2692.584)">
    <path id="Path_15" data-name="Path 15" d="M731.9,2740.111q-11.1,0-22.2,0a15.078,15.078,0,0,1-14.761-10.757,14.409,14.409,0,0,1,6.765-16.976c.743-.417,1.557-.706,2.324-1.084a.719.719,0,0,0,.363-.439,10.081,10.081,0,0,1,11.649-8.106,7.536,7.536,0,0,1,1.777.684c.4.2.6.178.825-.237a21.351,21.351,0,0,1,4.042-5.35,18.825,18.825,0,0,1,11.3-5.178,19.346,19.346,0,0,1,19.18,11.339,18.74,18.74,0,0,1,1.748,7.858c0,.429.062.606.556.643a13.4,13.4,0,0,1,12.487,11.314c.955,6.1-1.414,10.787-6.4,14.218a13.009,13.009,0,0,1-7.527,2.062C746.659,2740.124,739.281,2740.111,731.9,2740.111Zm-12.317-33.223a1.82,1.82,0,0,1-.3-.082,4.437,4.437,0,0,1-.457-.262,8.664,8.664,0,0,0-6.385-1.255c-2.546.38-5.108,3.162-5.513,5.785a10.855,10.855,0,0,1-.3,1.553.936.936,0,0,1-.542.536c-6.916,2.07-10.578,8.085-8.691,15.3a12.222,12.222,0,0,0,12.152,9.021c14.866-.06,29.733-.011,44.6-.028a11.248,11.248,0,0,0,10.39-16.206,10.461,10.461,0,0,0-10.411-6.282c-1.92.045-1.892.02-1.812-1.887a17.286,17.286,0,0,0-1.625-8.659,16.692,16.692,0,0,0-19.817-8.589,16.662,16.662,0,0,0-10.734,9.924C719.979,2706.137,719.779,2706.5,719.587,2706.888Z" fill="#3b973e"/>
    <circle id="Ellipse_4" data-name="Ellipse 4" cx="5.052" cy="5.052" r="5.052" transform="translate(708.731 2721.064)" fill="none" stroke="#3b973e" stroke-miterlimit="10" stroke-width="2"/>
    <circle id="Ellipse_5" data-name="Ellipse 5" cx="5.052" cy="5.052" r="5.052" transform="translate(727.281 2721.064)" fill="none" stroke="#3b973e" stroke-miterlimit="10" stroke-width="2"/>
    <circle id="Ellipse_6" data-name="Ellipse 6" cx="5.052" cy="5.052" r="5.052" transform="translate(745.832 2721.064)" fill="none" stroke="#3b973e" stroke-miterlimit="10" stroke-width="2"/>
  </g>
</svg>
