<svg xmlns="http://www.w3.org/2000/svg" width="64.685" height="72.458" viewBox="0 0 64.685 72.458">
  <g id="Group_11" data-name="Group 11" transform="translate(-698.856 -2565.064)">
    <path id="Path_2" data-name="Path 2" d="M731.146,2611.962a10.66,10.66,0,1,1,10.7-10.581A10.668,10.668,0,0,1,731.146,2611.962Zm8.089-10.606a8.07,8.07,0,0,0-16.14-.065,8.082,8.082,0,0,0,8.026,8.054A7.959,7.959,0,0,0,739.235,2601.356Z" fill="#3b973e"/>
    <path id="Path_3" data-name="Path 3" d="M750.279,2586.524a6.565,6.565,0,0,1,6.594-6.626,6.628,6.628,0,1,1-6.594,6.626Zm2.56-.058a4.1,4.1,0,0,0,3.961,4.086,4.031,4.031,0,0,0,4.1-4,4.081,4.081,0,0,0-4.106-4.024A4,4,0,0,0,752.839,2586.466Z" fill="#3b973e"/>
    <path id="Path_4" data-name="Path 4" d="M757.026,2609.481a6.627,6.627,0,1,1-6.761,6.135A6.642,6.642,0,0,1,757.026,2609.481Zm-4.19,6.606a4.062,4.062,0,0,0,4.014,4.028,3.874,3.874,0,0,0,4.039-3.965,4.027,4.027,0,0,0-8.053-.063Z" fill="#3b973e"/>
    <path id="Path_5" data-name="Path 5" d="M731.158,2578.373a6.655,6.655,0,1,1,.127-13.309,7.017,7.017,0,0,1,6.607,6.873C737.849,2574.874,734.765,2578.588,731.158,2578.373Zm4.066-6.469a4.2,4.2,0,0,0-4.087-4.208,4.263,4.263,0,0,0-4.023,4.142c-.093,2.008,2.273,3.988,4,3.96C733.1,2575.766,735.377,2574.1,735.224,2571.9Z" fill="#3b973e"/>
    <path id="Path_6" data-name="Path 6" d="M731.245,2637.515a6.732,6.732,0,0,1-6.712-6.612,6.824,6.824,0,0,1,6.454-6.693c4.062-.127,6.818,3.686,6.89,6.367C737.982,2634.414,734.5,2637.69,731.245,2637.515Zm3.991-6.459a4.2,4.2,0,0,0-4.09-4.208,4.157,4.157,0,0,0-4.007,4.272,4.219,4.219,0,0,0,4.05,3.813C733.115,2634.927,735.457,2633.14,735.236,2631.056Z" fill="#3b973e"/>
    <path id="Path_7" data-name="Path 7" d="M698.856,2586.523a6.689,6.689,0,0,1,6.622-6.63,6.632,6.632,0,1,1,.074,13.263A6.69,6.69,0,0,1,698.856,2586.523Zm10.681.139a4.052,4.052,0,1,0-3.912,3.915A3.856,3.856,0,0,0,709.537,2586.662Z" fill="#3b973e"/>
    <path id="Path_8" data-name="Path 8" d="M698.856,2616.111a6.633,6.633,0,0,1,6.6-6.634,6.63,6.63,0,1,1-6.6,6.634Zm10.694.095a4.057,4.057,0,1,0-8.113,0,4.182,4.182,0,0,0,4.278,3.942A3.885,3.885,0,0,0,709.55,2616.206Z" fill="#3b973e"/>
    <path id="Path_9" data-name="Path 9" d="M706.941,2601.3c0,1.611.026,3.223-.017,4.833a2.748,2.748,0,0,1-.372,1.32,1.092,1.092,0,0,1-1.922-.093,3.35,3.35,0,0,1-.321-1.413c-.028-3.132-.017-6.265-.013-9.4,0-1.162.543-1.91,1.357-1.9.785.012,1.284.736,1.287,1.883C706.943,2598.124,706.94,2599.713,706.941,2601.3Z" fill="#3b973e"/>
    <path id="Path_10" data-name="Path 10" d="M758.06,2601.242c0,1.613.024,3.226-.016,4.838a2.9,2.9,0,0,1-.351,1.331,1.116,1.116,0,0,1-1.967-.082,3.132,3.132,0,0,1-.3-1.287q-.036-4.771,0-9.542a3.13,3.13,0,0,1,.237-1.1,1.093,1.093,0,0,1,1.107-.72,1.033,1.033,0,0,1,1.048.693,3.524,3.524,0,0,1,.232,1.1C758.074,2598.061,758.06,2599.652,758.06,2601.242Z" fill="#3b973e"/>
    <path id="Path_11" data-name="Path 11" d="M749.806,2621.244a1.644,1.644,0,0,1-.936,1.581q-3.528,2-7.046,4.008c-.408.233-.791.512-1.212.714a3.451,3.451,0,0,1-1.128.366,1.189,1.189,0,0,1-1.184-.82.923.923,0,0,1,.339-1.186,10.986,10.986,0,0,1,1.4-.916q3.578-2.112,7.166-4.205a6.126,6.126,0,0,1,.9-.449A1.237,1.237,0,0,1,749.806,2621.244Z" fill="#3b973e"/>
    <path id="Path_12" data-name="Path 12" d="M722.508,2628a10.854,10.854,0,0,1-1.15-.5q-3.945-2.289-7.871-4.607a4.008,4.008,0,0,1-.759-.547,1.089,1.089,0,0,1-.221-1.506,1.175,1.175,0,0,1,1.577-.46c.779.388,1.533.829,2.287,1.265q3.224,1.864,6.437,3.742c.566.329,1.043.71.957,1.468A1.292,1.292,0,0,1,722.508,2628Z" fill="#3b973e"/>
    <path id="Path_13" data-name="Path 13" d="M748.327,2583.019a5.006,5.006,0,0,1-.779-.309q-4.033-2.266-8.054-4.559a4.532,4.532,0,0,1-.824-.572,1.02,1.02,0,0,1-.327-1.366,1.294,1.294,0,0,1,1.476-.654,7.925,7.925,0,0,1,1.339.612q3.711,2.088,7.407,4.206a5.711,5.711,0,0,1,.77.533,1.141,1.141,0,0,1,.333,1.394C749.468,2582.843,749.021,2583,748.327,2583.019Z" fill="#3b973e"/>
    <path id="Path_14" data-name="Path 14" d="M713.862,2583.024c-.773-.039-1.176-.315-1.358-.861a1.327,1.327,0,0,1,.745-1.564c1.006-.582,2.027-1.137,3.035-1.716,1.59-.915,3.169-1.847,4.762-2.755a6.942,6.942,0,0,1,1.215-.559,1.048,1.048,0,0,1,1.336.477,1.111,1.111,0,0,1-.111,1.425,3.554,3.554,0,0,1-.772.637q-3.919,2.265-7.857,4.5A7.573,7.573,0,0,1,713.862,2583.024Z" fill="#3b973e"/>
  </g>
</svg>
