<svg xmlns="http://www.w3.org/2000/svg" width="73.642" height="50.839" viewBox="0 0 73.642 50.839">
  <g id="Group_13" data-name="Group 13" transform="translate(-696.629 -2809.046)">
    <path id="Path_16" data-name="Path 16" d="M707.942,2847.011c-3.177,1.618-6.269,3.2-9.37,4.769-1,.507-1.543.283-1.869-.7a1.071,1.071,0,0,1,.633-1.4c1.378-.732,2.758-1.46,4.15-2.166q13.885-7.047,27.777-14.082,9.269-4.7,18.534-9.408c1.18-.6,2.363-1.2,3.554-1.773a1.259,1.259,0,0,1,1.793.425,1.045,1.045,0,0,1-.246,1.458,6.471,6.471,0,0,1-1.081.669q-6.773,3.429-13.549,6.849c-.263.133-.5.315-.9.57.384.151.608.243.835.328,2.214.828,4.436,1.636,6.636,2.5a2.464,2.464,0,0,1,1.147.86,1.353,1.353,0,0,1,.055,1.22c-.221.322-.769.44-1.2.587a.935.935,0,0,1-.545-.114c-2.931-1.132-5.872-2.241-8.782-3.424a2.475,2.475,0,0,0-2.28,0c-3.126,1.625-6.278,3.2-9.417,4.8-.245.125-.471.289-.762.469a1.418,1.418,0,0,0,.258.221q5.208,2.233,10.419,4.459c.956.407,1.938.758,2.88,1.194a1.325,1.325,0,0,1,.458,2.292,1.171,1.171,0,0,1-1.442.153c-1.642-.722-3.268-1.48-4.913-2.2-2.36-1.027-4.733-2.024-7.1-3.044-.953-.411-1.914-.814-2.838-1.285a1.353,1.353,0,0,0-1.339-.025q-2.659,1.345-5.324,2.677c-1.286.64-2.581,1.261-4.022,1.963.753,1.117,1.37,2.116,2.068,3.054a20.731,20.731,0,0,0,12.551,8.151,18.386,18.386,0,0,0,10.243-.9,31.381,31.381,0,0,0,13.4-9.339,87.685,87.685,0,0,0,9.844-14.239c2.34-4.176,4.58-8.41,6.807-12.648.764-1.454,1.356-3,2.078-4.615-.648-.137-1.3-.3-1.962-.41-3.418-.588-6.829-1.221-10.26-1.726-2.8-.412-5.617-.667-8.428-.99a98.633,98.633,0,0,0-15.038-.587c-6.427.243-12.293,2.065-17.233,6.3a19.957,19.957,0,0,0-7,13.411,23.182,23.182,0,0,0,.52,8.08c.153.634.023.908-.628,1.01a11.665,11.665,0,0,0-1.478.431,4.538,4.538,0,0,1-.2-.512,25.07,25.07,0,0,1-.237-11.987c1.68-7.379,6.194-12.471,12.809-15.868a31.17,31.17,0,0,1,12.515-3.285,105.146,105.146,0,0,1,18.494.745c3.49.4,6.967.923,10.436,1.475,3.168.5,6.322,1.1,9.474,1.7a1.489,1.489,0,0,1,1.146,2.373c-1.615,3.255-3.155,6.55-4.881,9.745-2.185,4.044-4.437,8.058-6.82,11.987a66.4,66.4,0,0,1-10.544,13.8c-4.641,4.446-10.022,7.6-16.459,8.593a20.032,20.032,0,0,1-14.185-2.834,26.842,26.842,0,0,1-8.676-8.976C708.3,2847.561,708.145,2847.329,707.942,2847.011Z" fill="#3b973e"/>
    <path id="Path_17" data-name="Path 17" d="M722.57,2820.658a2.841,2.841,0,0,1,.214-.523,1.241,1.241,0,0,1,1.429-.665,1.121,1.121,0,0,1,.812,1.267c-.113.958-.284,1.913-.491,2.857-.684,3.112-1.4,6.216-2.09,9.327a1.341,1.341,0,0,1-1.187,1.214,1.117,1.117,0,0,1-1.32-1.3c.308-1.765.626-3.532,1.018-5.28.516-2.3,1.1-4.589,1.663-6.882Z" fill="#3b973e"/>
    <path id="Path_18" data-name="Path 18" d="M737.258,2824.7a12.564,12.564,0,0,1-.455,1.358,1.206,1.206,0,0,1-1.585.677,1.021,1.021,0,0,1-.8-1.358c.483-2.018,1.023-4.024,1.595-6.019a1.148,1.148,0,0,1,1.385-.823,1.082,1.082,0,0,1,.928,1.35C738.015,2821.529,737.607,2823.155,737.258,2824.7Z" fill="#3b973e"/>
  </g>
</svg>
