<svg xmlns="http://www.w3.org/2000/svg" width="81.968" height="88.97" viewBox="0 0 81.968 88.97">
  <g id="Group_32" data-name="Group 32" transform="translate(-972.728 -517.297)">
    <path id="Path_201" data-name="Path 201" d="M1039.643,538.364l-7.461-3.707c-.418-.208-.841-.407-1.255-.622a1.828,1.828,0,0,1-.216-3.38q7.581-5.049,15.168-10.093c1.412-.94,2.819-1.888,4.235-2.823a1.844,1.844,0,0,1,3.065,1.531q.749,11.41,1.484,22.822a5.643,5.643,0,0,1,.012,1.031,1.8,1.8,0,0,1-2.756,1.3q-4.234-2.082-8.448-4.208c-.4-.2-.666-.313-.921.228a41.147,41.147,0,0,1-15.315,16.968,65.9,65.9,0,0,1-20.651,8.619,89.822,89.822,0,0,1-25.178,2.369c-2.332-.1-4.659-.343-6.984-.558a1.794,1.794,0,0,1-1.683-2.029,1.815,1.815,0,0,1,2.175-1.582,85.384,85.384,0,0,0,19.068.162,73.583,73.583,0,0,0,27.193-7.77c6.267-3.3,11.721-7.583,15.7-13.542C1037.861,541.594,1038.687,540,1039.643,538.364Zm10.123-15.989-14.568,9.707,15.708,7.782C1050.522,533.972,1050.15,528.27,1049.766,522.375Z" fill="#fff"/>
    <path id="Path_202" data-name="Path 202" d="M1034.961,602.571h13.619V552.146c0-.295-.013-.592.014-.884a1.792,1.792,0,0,1,1.748-1.673,1.749,1.749,0,0,1,1.8,1.511,5.621,5.621,0,0,1,.06.954q0,25.86,0,51.721c0,1.9-.57,2.465-2.464,2.465q-8.043,0-16.085,0c-1.675,0-2.29-.6-2.291-2.248q0-20.733.022-41.465a3.072,3.072,0,0,1,.552-1.674,1.481,1.481,0,0,1,1.806-.43,1.713,1.713,0,0,1,1.188,1.464,8.056,8.056,0,0,1,.025,1.031q0,19.332,0,38.662Z" fill="#fff"/>
    <path id="Path_203" data-name="Path 203" d="M1006.918,602.57h13.553c.015-.33.04-.637.04-.945q0-16.3,0-32.608c0-.3-.007-.59.005-.885a1.814,1.814,0,0,1,3.623-.145,5.636,5.636,0,0,1,.023.663q0,17.633,0,35.264a5.025,5.025,0,0,1-.028.662,1.762,1.762,0,0,1-1.836,1.656q-8.559.02-17.116,0a1.745,1.745,0,0,1-1.85-1.786c-.016-.245-.011-.491-.011-.737q0-14.718,0-29.436a9.25,9.25,0,0,1,.03-.958,1.749,1.749,0,0,1,1.8-1.588,1.774,1.774,0,0,1,1.739,1.594,9.535,9.535,0,0,1,.02.958q0,13.648,0,27.3Z" fill="#fff"/>
    <path id="Path_204" data-name="Path 204" d="M992.494,602.587V575.832c0-.271-.011-.543.011-.811a1.81,1.81,0,0,1,1.719-1.709,1.759,1.759,0,0,1,1.845,1.552,5.39,5.39,0,0,1,.051.881q0,14.054,0,28.106c0,1.847-.573,2.414-2.431,2.415q-8.042,0-16.082,0c-1.739,0-2.326-.57-2.327-2.277q0-14.2,0-28.4c0-1.388.625-2.163,1.736-2.191a1.756,1.756,0,0,1,1.84,1.634c.028.317.016.639.016.958q0,12.873-.014,25.745c0,.705.182.914.9.907,3.959-.033,7.918-.015,11.877-.017C991.9,602.624,992.162,602.6,992.494,602.587Z" fill="#fff"/>
  </g>
</svg>
