<svg xmlns="http://www.w3.org/2000/svg" width="74.083" height="74.07" viewBox="0 0 74.083 74.07">
  <g id="Group_31" data-name="Group 31" transform="translate(-650.231 -523.405)">
    <path id="Path_200" data-name="Path 200" d="M666.437,537.3c0-2.238-.028-4.4.008-6.553a7.047,7.047,0,0,1,3.772-6.507,7.633,7.633,0,0,1,3.747-.818q13.368-.024,26.737,0a6.835,6.835,0,0,1,6.756,4.26,9.744,9.744,0,0,1,.625,3.318c.1,1.865.027,3.74.027,5.61v.69h.662q6.425,0,12.848,0a2.383,2.383,0,0,1,2.7,2.705v54.5c0,2.062-.9,2.968-2.962,2.968H653.121c-1.937,0-2.889-.944-2.889-2.871q0-27.366,0-54.734a2.354,2.354,0,0,1,2.6-2.571q6.453,0,12.906,0ZM654.9,562.768v30.05h64.751V562.739a3,3,0,0,0-.284.155,12.331,12.331,0,0,1-7.528,2.178H694.274c-.057,1.058-.1,2.055-.168,3.05a6.93,6.93,0,0,1-7.742,6.093,7,7,0,0,1-5.752-5.171,16.593,16.593,0,0,1-.277-2.405c-.039-.509-.007-1.024-.007-1.567h-.768c-5.71,0-11.421.018-17.131-.01a11.815,11.815,0,0,1-5.546-1.175C656.224,563.54,655.586,563.155,654.9,562.768Zm-.042-20.819v.672q0,5.466,0,10.933a6.805,6.805,0,0,0,6.894,6.887q8.969.008,17.937,0h.579c.058-1.085.069-2.088.174-3.081a6.85,6.85,0,0,1,13.549-.531,25.587,25.587,0,0,1,.221,2.989c.013.2,0,.4,0,.623h.555q8.97,0,17.938,0a6.793,6.793,0,0,0,6.974-6.98q0-5.437,0-10.876v-.638Zm48.613-4.676c0-2.339.031-4.614-.012-6.887a2.133,2.133,0,0,0-2.179-2.343q-14-.011-28.009,0a2.132,2.132,0,0,0-2.2,2.187c-.012,2.237,0,4.474,0,6.711a2.857,2.857,0,0,0,.041.333Zm-18.517,27.821c0,.838-.008,1.625,0,2.411a2.317,2.317,0,0,0,4.6.3c.085-.89.016-1.794.016-2.712Zm4.62-4.679c0-.836.006-1.6,0-2.373a2.555,2.555,0,0,0-.088-.51,2.148,2.148,0,0,0-2.075-1.75,2.11,2.11,0,0,0-2.32,1.575,23.721,23.721,0,0,0-.172,3.058Z" fill="#fff"/>
  </g>
</svg>
