<svg xmlns="http://www.w3.org/2000/svg" width="66.389" height="78.543" viewBox="0 0 66.389 78.543">
  <g id="Group_41" data-name="Group 41" transform="translate(-650.564 -813.886)">
    <path id="Path_210" data-name="Path 210" d="M683.044,886.4a73.762,73.762,0,0,0,15.972-1.7,28.924,28.924,0,0,0,8.777-3.492,14.8,14.8,0,0,0,1.729-1.333,4.021,4.021,0,0,0,1.385-3.353,26.735,26.735,0,0,0-7.612-18.2,3.328,3.328,0,0,1-1.144-3.174,2.786,2.786,0,0,1,4.465-1.674,27.124,27.124,0,0,1,3.567,3.871,32,32,0,0,1,6.064,13.331,22.693,22.693,0,0,1,.6,7.336,9.621,9.621,0,0,1-3,5.846,22.862,22.862,0,0,1-8.373,4.948,62.294,62.294,0,0,1-17.439,3.47,64.616,64.616,0,0,1-13.919-.51c-6.069-.9-12.049-2.247-17.393-5.519a15.687,15.687,0,0,1-4.095-3.525c-1.911-2.37-2.281-5.1-1.97-8.039a34.791,34.791,0,0,1,3.366-12.052,31.847,31.847,0,0,1,6.179-8.6,2.827,2.827,0,0,1,3.614-.715,2.927,2.927,0,0,1,.9,4.34c-.781.985-1.676,1.879-2.445,2.871a26.616,26.616,0,0,0-5.705,16.428,3.489,3.489,0,0,0,1.039,2.577,15.227,15.227,0,0,0,5.327,3.341,43.758,43.758,0,0,0,13.3,3.048C678.743,886.114,681.251,886.273,683.044,886.4Z" fill="#fff"/>
    <path id="Path_211" data-name="Path 211" d="M683.566,813.886a21.1,21.1,0,1,1-.074,42.208,21.106,21.106,0,0,1,.074-42.208Zm15.266,21.134a15.095,15.095,0,0,0-30.19-.054,15.1,15.1,0,1,0,30.19.054Z" fill="#fff"/>
  </g>
</svg>
