<svg xmlns="http://www.w3.org/2000/svg" width="73.201" height="78.886" viewBox="0 0 73.201 78.886">
  <g id="GfvJTI" transform="translate(-315.577 -808.022)">
    <g id="Group_39" data-name="Group 39">
      <path id="Path_209" data-name="Path 209" d="M315.579,834.866c-.149-12.9,8.862-23.976,20.728-26.306a26.242,26.242,0,0,1,14.985,1.361,2.111,2.111,0,0,0,1.761-.007c13.415-5.631,29.648,1.811,34.24,15.613a25.578,25.578,0,0,1-2.557,22.426,27.248,27.248,0,0,0-3.775,14.086,33.135,33.135,0,0,1-9.5,22.792,6.637,6.637,0,0,1-7.387,1.547,6.854,6.854,0,0,1-4.25-6.757,29.566,29.566,0,0,0-3.439-14.32c-.392-.737-.823-1.456-1.282-2.154a3.342,3.342,0,0,0-5.882.024,28.992,28.992,0,0,0-4.68,16.489,6.766,6.766,0,0,1-5.748,7.12,6.284,6.284,0,0,1-6.015-2.056,33.555,33.555,0,0,1-9.346-20.822c-.272-3.4-.083-6.849-1.2-10.167a29.333,29.333,0,0,0-2.781-6.006A24.739,24.739,0,0,1,315.579,834.866Zm30.843-21.15a18.165,18.165,0,0,0-8.669-.273A21.01,21.01,0,0,0,323.9,845.409a28.83,28.83,0,0,1,4.345,14.424,34.875,34.875,0,0,0,1.713,10.94,29.608,29.608,0,0,0,6.274,10.311,1.708,1.708,0,0,0,1.98.691,1.921,1.921,0,0,0,1.315-1.926c.007-.293,0-.586,0-.879a33.194,33.194,0,0,1,5.4-18.45,8.4,8.4,0,0,1,14.343-.188,33.133,33.133,0,0,1,4.113,8.823,35.347,35.347,0,0,1,1.477,10.726,1.8,1.8,0,0,0,1.189,1.85,1.589,1.589,0,0,0,1.9-.52c.329-.321.65-.653.946-1.005a28.771,28.771,0,0,0,7.072-18.934,30.449,30.449,0,0,1,4.673-16.248,20.468,20.468,0,0,0,2.8-14.552,21.111,21.111,0,0,0-25.982-16.723,20.8,20.8,0,0,0-11.971,8.356,2.689,2.689,0,0,1-2.726,1.4,2.537,2.537,0,0,1-1.58-4.07A29.163,29.163,0,0,1,346.422,813.716Z" fill="#fff"/>
    </g>
  </g>
</svg>
