<svg xmlns="http://www.w3.org/2000/svg" width="81.449" height="81.449" viewBox="0 0 81.449 81.449">
  <path id="Path_212" data-name="Path 212" d="M380.589,551.021H370.4a5.827,5.827,0,0,1-5.827-5.827V535.01a5.826,5.826,0,0,0-5.826-5.826H337.63a5.827,5.827,0,0,0-5.827,5.826v10.184a5.826,5.826,0,0,1-5.826,5.827H315.793a5.826,5.826,0,0,0-5.827,5.826V577.97a5.826,5.826,0,0,0,5.827,5.826h10.184a5.826,5.826,0,0,1,5.826,5.827v10.184a5.827,5.827,0,0,0,5.827,5.826h21.122a5.826,5.826,0,0,0,5.826-5.826V589.623A5.827,5.827,0,0,1,370.4,583.8h10.184a5.826,5.826,0,0,0,5.826-5.826V556.847A5.826,5.826,0,0,0,380.589,551.021Z" transform="translate(-307.466 -526.684)" fill="none" stroke="#fff" stroke-miterlimit="10" stroke-width="5"/>
</svg>
