<svg xmlns="http://www.w3.org/2000/svg" width="26.306" height="63.753" viewBox="0 0 26.306 63.753">
  <g id="Group_15" data-name="Group 15" transform="translate(-812.854 -1823.243)">
    <path id="Path_14" data-name="Path 14" d="M819.678,1829.129c.5-5.881.5-5.881,6.21-5.885h.219c5.771,0,5.771,0,6.223,5.981.879,0,1.792-.012,2.7,0,2.919.042,4.108,1.21,4.115,4.156.02,7.9.008,15.8.008,23.705q0,12.73,0,25.461c-.005,3.406-1.023,4.423-4.471,4.435q-8.561.03-17.122,0c-3.744-.005-4.7-.95-4.7-4.647q-.007-24.144,0-48.288c0-3.846.946-4.8,4.764-4.832C818.267,1829.214,818.912,1829.164,819.678,1829.129Zm1.638.093c1.875,0,3.415-.08,4.94.041.575.045,1.114.553,1.67.849-.534.254-1.063.715-1.6.728-3.073.072-6.15.1-9.222.013-1.854-.054-2.623.581-2.617,2.526q.072,24.7,0,49.406c-.005,2,.728,2.714,2.719,2.684,5.709-.087,11.42-.027,17.13-.033,3.066,0,3.166-.1,3.166-3.275q.006-24.045,0-48.089c0-3.126-.068-3.185-3.214-3.194-4.029-.011-3.558.251-3.573-3.5,0-.293.116-.693-.031-.86-.537-.613-1.117-1.565-1.764-1.636a28.654,28.654,0,0,0-5.914-.006,2.558,2.558,0,0,0-1.621,1.515A9.186,9.186,0,0,0,821.316,1829.222Z" fill="#fff"/>
    <path id="Path_15" data-name="Path 15" d="M825.493,1864.3c5.415-4.344,5.69-10.221,4.83-16.777-3.867,2.7-7.313,5.495-8.633,10.007-.424,1.445,0,3.133-.006,4.709a12.276,12.276,0,0,1-.231,1.67c-.407-.417-1.126-.806-1.167-1.256-.168-1.853-.588-3.86-.083-5.563,1.665-5.61,6.08-8.855,11.017-12a12.414,12.414,0,0,1,.607,1.832c1.019,7,.6,13.547-5.222,18.713-1.084.962-1.483,2.715-2.142,4.129a9.682,9.682,0,0,0-.428,1.678c-2.373-2.124-.224-13.828,3.245-16.052l-2.483,8.75Z" fill="#fff"/>
  </g>
</svg>
