<svg xmlns="http://www.w3.org/2000/svg" width="108.856" height="100.368" viewBox="0 0 108.856 100.368">
  <g id="Group_20" data-name="Group 20" transform="translate(-492.624 -1222.557)">
    <path id="Path_28" data-name="Path 28" d="M572.875,1322.925c-4.545-.73-9.1-1.4-13.633-2.211-3.643-.653-7.249-1.5-10.882-2.216-1.1-.217-1.522-.793-1.086-1.787.742-1.691,1.6-3.333,2.39-5q3.567-7.5,7.123-15.008a2.839,2.839,0,0,1,2.8-1.852c8.176.036,16.351.018,24.527.02a5.862,5.862,0,0,1,.75.034c2.071.275,2.429.86,1.546,2.785q-5,10.908-10.057,21.791a10.248,10.248,0,0,0-.623,1.364A2.694,2.694,0,0,1,572.875,1322.925Z" fill="#f1f1f1"/>
    <path id="Path_29" data-name="Path 29" d="M573.832,1291.143c-3.959,0-7.919.012-11.879-.005-1.861-.008-2.2-.513-1.415-2.158q4.2-8.776,8.466-17.526a4.853,4.853,0,0,1,3.987-3.135c5.054-.632,10.079-1.5,15.11-2.312,3.8-.613,7.58-1.308,11.378-1.915a9.6,9.6,0,0,1,2,.095,7.548,7.548,0,0,1-.349,1.843c-3.452,7.432-6.967,14.835-10.407,22.272-1.085,2.348-3.035,2.828-5.313,2.825q-5.79-.009-11.579,0Z" fill="#f1f1f1"/>
    <path id="Path_30" data-name="Path 30" d="M511.93,1281.247c.007-18.1,11.571-33.268,27.787-37.544a37,37,0,0,1,40.247,14.957,7.763,7.763,0,0,1,1.309,1.993,3.323,3.323,0,0,1-.108,2.442,1.905,1.905,0,0,1-2.711.282,5.755,5.755,0,0,1-1.407-1.519c-7.085-10.154-16.761-15.7-29.208-15.036-13.068.694-22.845,7.219-28.408,19.1-5.964,12.733-4.058,24.773,4.559,35.809.431.552,1.119,1.033,1.266,1.647.2.822.313,2.075-.146,2.529s-1.722.378-2.542.173c-.6-.149-1.114-.828-1.551-1.365C515.205,1297.558,512.046,1289.417,511.93,1281.247Z" fill="#f1f1f1"/>
    <path id="Path_31" data-name="Path 31" d="M545.018,1294.866q4.056,0,8.112,0c1.135,0,1.249.467.781,1.414q-4.686,9.472-9.313,18.975c-.888,1.821-1.423,2.193-3.394,1.843-4.576-.815-9.149-1.649-13.711-2.536-2.329-.453-2.414-.656-1.345-2.838,2.022-4.128,4.094-8.232,6.14-12.349.6-1.208,1.124-2.46,1.809-3.618a1.955,1.955,0,0,1,1.318-.911c3.2-.078,6.4-.041,9.6-.041Z" fill="#f1f1f1"/>
    <path id="Path_32" data-name="Path 32" d="M566.492,1269.72c-.267.657-.44,1.156-.667,1.629-2.8,5.809-5.641,11.595-8.383,17.43a3.586,3.586,0,0,1-3.769,2.426c-5.055-.094-10.116.1-15.174.147-.68.007-1.361-.12-2.29-.208,1.058-2.074,2.011-3.925,2.949-5.784,1.844-3.655,3.729-7.291,5.5-10.983a3.741,3.741,0,0,1,3.584-2.379c2.128-.114,4.227-.686,6.349-.99,3.408-.489,6.823-.932,10.239-1.366A10.57,10.57,0,0,1,566.492,1269.72Z" fill="#f1f1f1"/>
    <path id="Path_33" data-name="Path 33" d="M510.3,1257.818a13.368,13.368,0,0,1-1.957-.75c-3-1.8-5.971-3.631-8.946-5.464a8.075,8.075,0,0,1-1.077-.808,2.063,2.063,0,0,1,2.342-3.385c1.333.781,2.659,1.575,3.967,2.4,2.241,1.406,4.529,2.752,6.654,4.317a2.679,2.679,0,0,1,.714,2.3C511.867,1257.007,510.866,1257.389,510.3,1257.818Z" fill="#f1f1f1"/>
    <path id="Path_34" data-name="Path 34" d="M534.1,1225.057c.091-1.106-.221-2.337,1.472-2.479,1.635-.137,2.466.4,2.828,1.94.78,3.322,1.58,6.639,2.375,9.957.373,1.56-.19,2.536-1.62,2.793-1.527.274-2.234-.333-2.595-1.865-.656-2.791-1.454-5.549-2.159-8.329A19.058,19.058,0,0,1,534.1,1225.057Z" fill="#f1f1f1"/>
    <path id="Path_35" data-name="Path 35" d="M504.107,1288.552c1.268.085,2.047.51,2.251,1.749a1.9,1.9,0,0,1-1.528,2.377c-3.249.779-6.508,1.517-9.78,2.191a1.77,1.77,0,0,1-2.342-1.3,1.837,1.837,0,0,1,1.438-2.41C497.451,1290.237,500.784,1289.414,504.107,1288.552Z" fill="#f1f1f1"/>
    <path id="Path_36" data-name="Path 36" d="M580.377,1233.127c-.289.618-.48,1.134-.757,1.6-1.38,2.313-2.752,4.632-4.188,6.91-.938,1.488-1.841,1.709-3.107.919-1.327-.827-1.483-1.614-.545-3.147,1.4-2.294,2.808-4.589,4.275-6.843,1.033-1.587,2.4-1.811,3.623-.644A4.891,4.891,0,0,1,580.377,1233.127Z" fill="#f1f1f1"/>
    <path id="Path_37" data-name="Path 37" d="M554.16,1233.856c.415-1.526.787-3.064,1.255-4.574.41-1.322,1.519-1.315,2.593-1.1,1.151.231,1.459,1.092,1.347,2.16-.161,1.539-.339,3.077-.488,4.618a2.19,2.19,0,0,1-2.5,2.119c-1.407-.061-1.936-.668-1.963-2.256-.005-.3,0-.6,0-.9Z" fill="#f1f1f1"/>
    <path id="Path_38" data-name="Path 38" d="M586.6,1255.377c-.65-.531-1.569-.948-1.863-1.632a2.324,2.324,0,0,1,.641-2.025,22.655,22.655,0,0,1,4.183-3.126,3.435,3.435,0,0,1,2.739-.158,1.575,1.575,0,0,1,.5,2.64,62.967,62.967,0,0,1-5.238,3.921c-.179.129-.483.086-.729.123Z" fill="#f1f1f1"/>
    <path id="Path_39" data-name="Path 39" d="M500.67,1269.425c1.392.348,2.807.623,4.166,1.069a2.089,2.089,0,0,1,1.533,2.438c-.183,1.253-1.149,1.553-2.217,1.541a28.264,28.264,0,0,1-4.331-.234,3.594,3.594,0,0,1-1.957-1.212c-1.19-1.425-.561-2.976,1.261-3.326a11.041,11.041,0,0,1,1.493-.093Z" fill="#f1f1f1"/>
    <path id="Path_40" data-name="Path 40" d="M520.055,1236.472a6.977,6.977,0,0,1,1.507,1.1,32.034,32.034,0,0,1,2.118,2.887,2.941,2.941,0,0,1,.425.787c.34,1.076.581,2.2-.445,3.027-.84.677-2.247.29-3.139-.881a37.928,37.928,0,0,1-2.779-4.076C516.935,1237.907,517.911,1236.482,520.055,1236.472Z" fill="#f1f1f1"/>
    <path id="Path_41" data-name="Path 41" d="M513.844,1307.558a6.04,6.04,0,0,1-.981,1.432,7.758,7.758,0,0,1-2.466,1.64c-.675.232-1.925.178-2.236-.247-.449-.614-.689-2.07-.3-2.476a12.747,12.747,0,0,1,3.811-2.656C512.731,1304.766,513.875,1305.957,513.844,1307.558Z" fill="#f1f1f1"/>
  </g>
</svg>
