<svg xmlns="http://www.w3.org/2000/svg" width="73.048" height="51.678" viewBox="0 0 73.048 51.678">
  <g id="Group_11" data-name="Group 11" transform="translate(-785.682 -1750.257)">
    <path id="Path_8" data-name="Path 8" d="M815.9,1796.189c-4.779,3.569-9.96,4.957-15.73,3.7-7.945-1.73-13.571-8.223-14.41-16.616-.735-7.335,3.993-15.058,11.092-18.108,1.126-.484,2.2-.679,2.49-2.385,2-11.682,14.373-16.338,23.649-8.994.187.148.4.261.747.481,6.224-4.187,12.693-4.7,18.85.037,5.84,4.5,6.95,10.644,4.94,17.639.675.27,1.332.515,1.975.792a15.19,15.19,0,1,1-14.128,26.775,3.338,3.338,0,0,0-3.622-.336C825.994,1801.554,820.772,1800.331,815.9,1796.189Zm.1-2.844c.725.665,1.3,1.206,1.888,1.729a12.044,12.044,0,0,0,14.087,1.681,2.7,2.7,0,0,1,3.555.313,13.038,13.038,0,0,0,20.859-12.623,12.281,12.281,0,0,0-9.547-10.328c-1.729-.463-2.2-1.071-1.5-2.847a13.042,13.042,0,0,0-20.044-15.365c-1.273.956-2.022,1.035-3.236-.115a11.645,11.645,0,0,0-12.7-2.665,11.355,11.355,0,0,0-7.916,10c-.221,2.162-1.093,3.074-3.111,3.778-6.628,2.311-10.566,8.467-10.388,15.731a15.95,15.95,0,0,0,11.075,14.8C805.371,1799.475,810.865,1797.774,816,1793.345Z" fill="#fff"/>
    <path id="Path_9" data-name="Path 9" d="M833.284,1776.456c-.015,4.1-2.621,6.875-6.452,6.872s-6.534-2.973-6.476-7.128a6.58,6.58,0,0,1,6.354-6.807C830.549,1769.353,833.3,1772.308,833.284,1776.456Zm-6.51,5.009c2.644.032,4.447-1.894,4.517-4.824.074-3.1-1.66-5.289-4.27-5.378-2.787-.095-4.443,1.747-4.5,5C822.469,1779.572,823.99,1781.433,826.774,1781.465Z" fill="#fff"/>
    <path id="Path_10" data-name="Path 10" d="M818.274,1773.909c-.617-.32-1.452-.486-1.808-.99-1.021-1.448-2.5-2.185-3.934-1.51a6.27,6.27,0,0,0-3.1,3.186c-1.291,3.85.854,7.222,4.163,6.778,1.131-.152,2.1-1.412,3.181-2.094a9.988,9.988,0,0,1,1.677-.677,4.37,4.37,0,0,1,.005,1.691c-1.381,3.121-6.063,4.131-8.884,1.9-2.631-2.081-2.648-5.028-2.191-7.937a5.551,5.551,0,0,1,4.393-4.59C814.852,1768.8,817.4,1770.08,818.274,1773.909Z" fill="#fff"/>
    <path id="Path_11" data-name="Path 11" d="M833.677,1782.433c.846-.637,1.633-1.649,2.557-1.8a3.034,3.034,0,0,1,2.552,1.2c1.274,2.405-1.308,3.36-2.483,5.169l2.684.222c-.414,1.556-.561,1.589-5.363,1.176a18.28,18.28,0,0,1,1.394-2.389c.546-.677,1.418-1.112,1.885-1.825a5.7,5.7,0,0,0,.414-2.037c-.646.21-1.293.414-1.937.632-.409.138-.812.3-1.218.447Z" fill="#fff"/>
  </g>
</svg>
