<svg xmlns="http://www.w3.org/2000/svg" width="53.532" height="55.107" viewBox="0 0 53.532 55.107">
  <g id="Group_13" data-name="Group 13" transform="translate(-801.413 -1911.626)">
    <path id="Path_12" data-name="Path 12" d="M816.7,1952.23c-3.648.269-7.8-.16-11.128-3.392a12.515,12.515,0,0,1-3.746-12.585,12.163,12.163,0,0,1,8.911-9.333c1.274-.378,2.03-.819,2.28-2.242a15.6,15.6,0,0,1,30.644-.74,3.753,3.753,0,0,0,2.886,3.287,12.876,12.876,0,0,1-3.706,24.927c-2.968.121-5.945.107-8.915.035-.542-.013-1.071-.6-1.606-.926a5.072,5.072,0,0,1,1.71-.784c2.524-.088,5.053-.016,7.579-.045a11.235,11.235,0,0,0,11.5-10.461c.479-5.387-3.447-10.349-9.277-11.572-1.295-.272-1.652-.922-1.747-2.124a13.743,13.743,0,0,0-27.392-.345c-.14,1.395-.378,2.274-2.1,2.514a10.975,10.975,0,0,0-9.393,11.237,11.2,11.2,0,0,0,10.777,10.724c2.82.114,5.649-.018,8.47.078.536.018,1.053.588,1.579.9-.5.281-.99.774-1.506.805C820.817,1952.294,819.1,1952.23,816.7,1952.23Z" fill="#fff"/>
    <path id="Path_13" data-name="Path 13" d="M827.271,1943.264c0-4.594,0-8.451,0-12.309a7.568,7.568,0,0,1,.032-1.777,10.42,10.42,0,0,1,.821-1.81c.311.574.844,1.13.89,1.724.125,1.626.033,3.267.055,4.9.007.561.1,1.119.188,2.1,1.4-1,2.477-1.873,3.665-2.555.436-.25,1.134-.043,1.713-.044-.2.495-.382,1-.627,1.479a1.1,1.1,0,0,1-.522.4c-3.957,1.8-4.743,4.921-4.519,9.035.352,6.448.126,12.929.053,19.4a11.892,11.892,0,0,1-.8,2.93,11.707,11.707,0,0,1-.908-3.042c-.093-5.2-.127-10.408,0-15.608a4.2,4.2,0,0,0-2.084-4.035c-2.1-1.4-4.107-2.943-6.067-4.533-.436-.353-.506-1.158-.744-1.754.592.09,1.313-.006,1.754.3C822.407,1939.61,824.565,1941.262,827.271,1943.264Z" fill="#fff"/>
  </g>
</svg>
