<svg xmlns="http://www.w3.org/2000/svg" xmlns:xlink="http://www.w3.org/1999/xlink" width="83.303" height="71.83" viewBox="0 0 83.303 71.83">
  <defs>
    <linearGradient id="linear-gradient" x1="2.695" y1="-0.675" x2="-0.486" y2="0.907" gradientUnits="objectBoundingBox">
      <stop offset="0" stop-color="#d6de25"/>
      <stop offset="0.364" stop-color="#96c93e"/>
      <stop offset="1" stop-color="#00773c"/>
    </linearGradient>
    <linearGradient id="linear-gradient-2" x1="4.366" y1="-0.525" x2="-0.254" y2="0.811" xlink:href="#linear-gradient"/>
    <linearGradient id="linear-gradient-3" x1="2.162" y1="-0.074" x2="-2.44" y2="1.262" xlink:href="#linear-gradient"/>
    <linearGradient id="linear-gradient-4" x1="3.442" y1="-0.568" x2="-2.937" y2="1.568" xlink:href="#linear-gradient"/>
    <linearGradient id="linear-gradient-5" x1="5.309" y1="-0.983" x2="-1.208" y2="1.147" xlink:href="#linear-gradient"/>
    <linearGradient id="linear-gradient-6" x1="5.236" y1="-2.141" x2="-1.281" y2="1.49" xlink:href="#linear-gradient"/>
  </defs>
  <g id="Group_19" data-name="Group 19" transform="translate(-251.906 -1242.577)">
    <path id="Path_22" data-name="Path 22" d="M280.9,1314.355a3,3,0,0,1-3.027-3.92c.917-2.637,2-5.216,3.039-7.81q3.779-9.458,7.577-18.905c.03-.074.071-.144.1-.219.219-.629.7-1.316.574-1.869-.109-.487-.88-.837-1.377-1.224-3.425-2.666-4.092-7.049-2.762-10.793a9.346,9.346,0,0,1,8.071-6.39,5.093,5.093,0,0,1,1.8.2,10.5,10.5,0,0,1,8.211,9.3,8.445,8.445,0,0,1-4.99,8.23,5.551,5.551,0,0,0-3.263,3.535c-3.5,9.034-7.149,18.014-10.748,27.012-.138.346-.329.673-.447,1.025A2.5,2.5,0,0,1,280.9,1314.355Zm12.5-38.425c1.678.252,3.407-1.658,3.386-3.315a3.269,3.269,0,0,0-3.179-3.085c-1.592.019-3.053,1.77-3.072,3.684A2.613,2.613,0,0,0,293.395,1275.93Z" fill="url(#linear-gradient)"/>
    <path id="Path_23" data-name="Path 23" d="M251.906,1272.384a42.257,42.257,0,0,1,11.963-28.547,3.264,3.264,0,0,1,2.566-1.225,2.824,2.824,0,0,1,2.715,3.972,7.669,7.669,0,0,1-1.4,2.217,34.5,34.5,0,0,0-8.446,17.025,39.073,39.073,0,0,0-.38,11.627,33.4,33.4,0,0,0,8.836,19.521c.216.236.425.481.658.7,2.1,1.963.485,4.779-1.285,5.394a2.272,2.272,0,0,1-1.591-.061,7.073,7.073,0,0,1-2.051-1.481,42.384,42.384,0,0,1-10.155-18.588A52.189,52.189,0,0,1,251.906,1272.384Z" fill="url(#linear-gradient-2)"/>
    <path id="Path_24" data-name="Path 24" d="M335.209,1273.867a41.455,41.455,0,0,1-11.651,27.861,3.583,3.583,0,0,1-4.1,1.116,2.888,2.888,0,0,1-1.435-4.138,8.423,8.423,0,0,1,1.392-1.84,31.9,31.9,0,0,0,8.237-15.278,39.863,39.863,0,0,0,.713-12.63,33.859,33.859,0,0,0-4.059-13.426,35.953,35.953,0,0,0-5.6-7.558c-1.362-1.464-1.4-3-.183-4.348a3.085,3.085,0,0,1,4.541-.1,41.394,41.394,0,0,1,9.7,15.716A45.408,45.408,0,0,1,335.209,1273.867Z" fill="url(#linear-gradient-3)"/>
    <path id="Path_25" data-name="Path 25" d="M318.966,1272.708a26.2,26.2,0,0,1-6.2,17.06,5.281,5.281,0,0,1-2.792,1.9c-2.232.542-3.958-1.089-3.339-3.313a7.359,7.359,0,0,1,1.419-2.633,18.834,18.834,0,0,0,4.336-9.3c.962-6.356-.4-12.068-4.86-16.878a3.7,3.7,0,0,1-1.232-2.847c.179-2,2.725-3.655,4.6-2.336a8.073,8.073,0,0,1,1.375,1.08,24.819,24.819,0,0,1,6.444,14.316C318.836,1270.818,318.9,1271.884,318.966,1272.708Z" fill="url(#linear-gradient-4)"/>
    <path id="Path_26" data-name="Path 26" d="M268.222,1273.726a25.856,25.856,0,0,1,6.931-18.515,3.7,3.7,0,0,1,2.985-1.3,2.559,2.559,0,0,1,2.4,3.333,7.209,7.209,0,0,1-1.363,2.734,18.743,18.743,0,0,0-4.231,8.663c-1.144,6.5.062,12.449,4.609,17.495a4.32,4.32,0,0,1,.7,4.365,2.4,2.4,0,0,1-3.321,1.133,6.85,6.85,0,0,1-2.163-1.582,24.428,24.428,0,0,1-6.335-13.936c-.049-.4-.1-.793-.137-1.191S268.245,1274.125,268.222,1273.726Z" fill="url(#linear-gradient-5)"/>
    <path id="Path_27" data-name="Path 27" d="M306.119,1314.407a2.382,2.382,0,0,1-2.319-1.449c-.571-1.229-1.087-2.484-1.6-3.74q-2.306-5.694-4.581-11.4a11.418,11.418,0,0,1-.558-1.744,3.192,3.192,0,0,1,2.24-3.808,2.925,2.925,0,0,1,3.552,1.826c1.221,2.89,2.361,5.814,3.526,8.727.948,2.371,1.926,4.73,2.809,7.124a3.305,3.305,0,0,1-1.993,4.228A7.265,7.265,0,0,1,306.119,1314.407Z" fill="url(#linear-gradient-6)"/>
  </g>
</svg>
