<svg xmlns="http://www.w3.org/2000/svg" xmlns:xlink="http://www.w3.org/1999/xlink" width="98.379" height="95.116" viewBox="0 0 98.379 95.116">
  <defs>
    <linearGradient id="linear-gradient" x1="2.898" y1="-1.894" x2="-0.308" y2="1.308" gradientUnits="objectBoundingBox">
      <stop offset="0" stop-color="#d6de25"/>
      <stop offset="0.364" stop-color="#96c93e"/>
      <stop offset="1" stop-color="#00773c"/>
    </linearGradient>
    <linearGradient id="linear-gradient-2" x1="1.362" y1="-0.342" x2="-0.123" y2="1.143" xlink:href="#linear-gradient"/>
    <linearGradient id="linear-gradient-3" x1="1.68" y1="-0.691" x2="-1.329" y2="2.363" xlink:href="#linear-gradient"/>
    <linearGradient id="linear-gradient-4" x1="1.993" y1="-1.64" x2="-0.299" y2="1.606" xlink:href="#linear-gradient"/>
    <linearGradient id="linear-gradient-5" x1="1.414" y1="-0.849" x2="-0.79" y2="2.515" xlink:href="#linear-gradient"/>
    <linearGradient id="linear-gradient-6" x1="2.992" y1="-2.722" x2="-0.185" y2="1.343" xlink:href="#linear-gradient"/>
    <linearGradient id="linear-gradient-7" x1="2.275" y1="-1.936" x2="-0.734" y2="2.258" xlink:href="#linear-gradient"/>
  </defs>
  <g id="Group_22" data-name="Group 22" transform="translate(-759.08 -1228.394)">
    <path id="Path_42" data-name="Path 42" d="M779,1260.46l1.751,1.739c-.085.1-.182.223-.293.334L763,1279.994c-.233.233-.467.469-.683.718a2.461,2.461,0,0,0,.258,3.6,2.416,2.416,0,0,0,3.055.038c1.342-1.249,2.639-2.547,3.936-3.843q7.226-7.219,14.434-14.456c.252-.253.412-.25.645-.011.393.4.794.8,1.209,1.175.237.216.182.354-.024.56q-5.556,5.559-11.1,11.129-3.294,3.3-6.6,6.582a5.96,5.96,0,0,1-3.146,1.86,5.061,5.061,0,0,1-5.859-5.6,4.244,4.244,0,0,1,1.138-2.478q2.736-2.836,5.516-5.63,6.231-6.252,12.484-12.481C778.492,1260.925,778.738,1260.7,779,1260.46Z" fill="url(#linear-gradient)"/>
    <g id="Group_21" data-name="Group 21">
      <path id="Path_43" data-name="Path 43" d="M764.726,1230.56c.514.389,1.09.827,1.668,1.262,3.153,2.376,6.3,4.758,9.468,7.116a2.431,2.431,0,0,1,.836,1.246c.278.811.567,1.621.784,2.448a2.756,2.756,0,0,0,.783,1.285q6.211,6.2,12.413,12.408,3.453,3.453,6.909,6.905c.219.219.466.411.839.738.322-.384.612-.766.947-1.1a.619.619,0,0,1,.513-.14c1.182.357,2.352.759,3.533,1.122a1.186,1.186,0,0,1,.9.935c.334,1.41.719,2.809,1.044,4.222a2.4,2.4,0,0,0,.68,1.224c3.273,3.248,6.56,6.483,9.79,9.772a4.99,4.99,0,0,1-.5,7.647,4.843,4.843,0,0,1-6.418-.31c-2.993-2.967-5.988-5.933-8.936-8.945a5.245,5.245,0,0,0-3.13-1.863c-.99-.127-1.95-.474-2.932-.689a1.777,1.777,0,0,1-1.375-1.139c-.456-1.113-.966-2.2-1.436-3.311a.431.431,0,0,1,.079-.372c.278-.3.583-.585.885-.866.4-.377.407-.533.011-.928-6.268-6.259-12.558-12.5-18.782-18.8a6.162,6.162,0,0,0-3.275-1.946,5.4,5.4,0,0,1-3.473-2.532c-2.342-3.219-4.767-6.378-7.166-9.555-.174-.23-.241-.381.006-.621C761.165,1234.057,762.918,1232.33,764.726,1230.56Zm29.612,37.337c.669-.682,1.3-1.3,1.9-1.954.275-.3,0-.5-.2-.7q-9.522-9.515-19.052-19.021a6.934,6.934,0,0,1-2.069-3.4,4.734,4.734,0,0,0-2.027-3.043c-2.446-1.655-4.754-3.515-7.12-5.288-.289-.217-.611-.6-.881-.575-.3.033-.56.447-.82.712-.539.551-1.066,1.114-1.617,1.693.131.152.29.317.426.5q3.2,4.289,6.4,8.577a.96.96,0,0,0,.421.317c.761.269,1.521.551,2.3.756a4.7,4.7,0,0,1,2.187,1.282q8.538,8.571,17.095,17.123C792.276,1265.867,793.278,1266.848,794.338,1267.9Zm20.406,15.6a2.068,2.068,0,0,0-.692-1.693c-.19-.184-.361-.387-.548-.574q-4.8-4.8-9.618-9.6a3.185,3.185,0,0,1-.866-1.576,19.25,19.25,0,0,1-.633-2.64,1.919,1.919,0,0,0-1.634-1.832.632.632,0,0,0-.757.187q-2.536,2.614-5.108,5.194c-.9.894-.926.879-.3,2.005a1.094,1.094,0,0,0,.52.53,26.075,26.075,0,0,0,2.828.689,5.248,5.248,0,0,1,2.992,1.578c3.167,3.237,6.388,6.422,9.594,9.621a2.438,2.438,0,0,0,2.72.607A2.628,2.628,0,0,0,814.744,1283.494Z" fill="url(#linear-gradient-2)"/>
      <path id="Path_44" data-name="Path 44" d="M811.095,1230.8c-.762.707-1.541,1.4-2.283,2.125-1.594,1.562-3.16,3.151-4.758,4.708-.291.284-.276.464-.014.724,1.044,1.036,2.088,2.072,3.113,3.128.351.362.549.095.767-.122q1.844-1.839,3.678-3.685,1.45-1.46,2.894-2.926c.089-.09.191-.168.343-.3.312.623.624,1.2.891,1.788a13.99,13.99,0,0,1,1.347,6.134,10.7,10.7,0,0,1-3.129,7.685,37.871,37.871,0,0,1-3.314,3.05,9.617,9.617,0,0,1-7.723,1.823,25.7,25.7,0,0,1-3.551-1.022.48.48,0,0,0-.594.14c-.774.815-1.569,1.609-2.336,2.43-.245.262-.4.242-.636-.006-.455-.473-.945-.914-1.46-1.405.418-.439.79-.832,1.165-1.222.928-.965,1.851-1.935,2.795-2.883a.563.563,0,0,1,.487-.059,26.286,26.286,0,0,0,3.6,1.351c3.042.642,5.85.168,8.082-2.254.593-.643,1.222-1.256,1.851-1.865a7.928,7.928,0,0,0,2.136-4.732,11.156,11.156,0,0,0-.342-4.211,1.66,1.66,0,0,0-.18-.327l-6.393,6.438-7.4-7.429,6.476-6.482c-.362-.081-.7-.179-1.045-.23a14.169,14.169,0,0,0-4.441-.031,6.706,6.706,0,0,0-3.641,1.88c-.892.883-1.768,1.787-2.6,2.73a7.949,7.949,0,0,0-1.668,7.284,13.074,13.074,0,0,0,1.522,3.917l-4.606,4.471-1.75-1.64c.846-.847,1.67-1.653,2.472-2.481.856-.884.892-.592.4-1.985-1.56-4.406-1.053-8.446,2.294-11.914a35.885,35.885,0,0,1,2.778-2.685,10.559,10.559,0,0,1,7.431-2.305,14.52,14.52,0,0,1,6.63,1.934c.185.1.382.185.573.277Z" fill="url(#linear-gradient-3)"/>
      <path id="Path_45" data-name="Path 45" d="M830.358,1323.51c-4.306-.692-8.623-1.325-12.916-2.094-3.451-.619-6.868-1.424-10.31-2.1-1.046-.205-1.442-.751-1.029-1.693.7-1.6,1.512-3.158,2.264-4.739q3.379-7.107,6.749-14.218a2.688,2.688,0,0,1,2.65-1.755c7.745.034,15.491.017,23.237.019a5.442,5.442,0,0,1,.711.033c1.962.259,2.3.814,1.464,2.638q-4.738,10.334-9.528,20.645a9.727,9.727,0,0,0-.59,1.292A2.552,2.552,0,0,1,830.358,1323.51Z" fill="url(#linear-gradient-4)"/>
      <path id="Path_46" data-name="Path 46" d="M831.265,1293.4c-3.752,0-7.5.012-11.255-.005-1.763-.008-2.087-.486-1.341-2.044q3.984-8.316,8.022-16.6a4.6,4.6,0,0,1,3.776-2.97c4.789-.6,9.55-1.421,14.316-2.191,3.6-.58,7.182-1.239,10.78-1.813a9.063,9.063,0,0,1,1.9.089,7.217,7.217,0,0,1-.331,1.747c-3.27,7.041-6.6,14.054-9.859,21.1-1.029,2.223-2.876,2.679-5.035,2.675q-5.484-.008-10.969,0Z" fill="url(#linear-gradient-5)"/>
      <path id="Path_47" data-name="Path 47" d="M803.966,1296.927q3.843,0,7.685,0c1.075,0,1.184.442.74,1.339q-4.44,8.976-8.823,17.978c-.841,1.725-1.348,2.078-3.216,1.745-4.335-.771-8.668-1.561-12.99-2.4-2.206-.429-2.287-.621-1.274-2.689,1.916-3.911,3.879-7.8,5.818-11.7.569-1.144,1.065-2.331,1.713-3.428a1.849,1.849,0,0,1,1.249-.862c3.031-.075,6.065-.04,9.1-.04Z" fill="url(#linear-gradient-6)"/>
      <path id="Path_48" data-name="Path 48" d="M824.31,1273.1c-.253.622-.416,1.095-.632,1.543-2.65,5.5-5.343,10.985-7.941,16.513a3.4,3.4,0,0,1-3.571,2.3c-4.79-.089-9.584.089-14.377.139-.644.006-1.289-.114-2.169-.2,1-1.965,1.905-3.719,2.794-5.48,1.747-3.463,3.533-6.907,5.207-10.405a3.544,3.544,0,0,1,3.4-2.255c2.016-.107,4.005-.649,6.016-.937,3.228-.464,6.464-.883,9.7-1.295A9.993,9.993,0,0,1,824.31,1273.1Z" fill="url(#linear-gradient-7)"/>
    </g>
  </g>
</svg>
