<svg xmlns="http://www.w3.org/2000/svg" width="25.751" height="18.446" viewBox="0 0 25.751 18.446">
  <g id="Group_17" data-name="Group 17" transform="translate(-1033.006 -3274.915)">
    <path id="Path_18" data-name="Path 18" d="M1033.011,3281.411c.167.066.3.115.437.174q5.444,2.417,10.889,4.832a3.652,3.652,0,0,0,3.057.015q3.933-1.732,7.86-3.482l3.089-1.37c.121-.053.247-.1.412-.161v.333q0,5.057,0,10.113a1.359,1.359,0,0,1-1.463,1.489c-1.157.011-2.315,0-3.472,0h-18.754c-.253,0-.507-.021-.761-.017a1.371,1.371,0,0,1-1.295-1.4c.006-2.186,0-4.372,0-6.559v-3.971Z" fill="#fff"/>
    <path id="Path_19" data-name="Path 19" d="M1045.9,3274.916h11.069a4.89,4.89,0,0,1,.571.016,1.332,1.332,0,0,1,1.218,1.375c0,.486-.013.973,0,1.459a1.359,1.359,0,0,1-.883,1.379c-.506.231-1.017.452-1.525.678l-5.459,2.431-3.957,1.756c-.174.078-.344.164-.523.227a1.544,1.544,0,0,1-1.174-.061l-8.3-3.675q-1.5-.663-2.995-1.322a1.438,1.438,0,0,1-.927-1.427c0-.459.012-.917,0-1.375a1.394,1.394,0,0,1,1.438-1.463c.726.01,1.453,0,2.179,0Z" fill="#fff"/>
  </g>
</svg>
