<svg xmlns="http://www.w3.org/2000/svg" xmlns:xlink="http://www.w3.org/1999/xlink" width="29.677" height="29.669" viewBox="0 0 29.677 29.669">
  <defs>
    <linearGradient id="linear-gradient" x1="0.883" y1="0.117" x2="0.122" y2="0.878" gradientUnits="objectBoundingBox">
      <stop offset="0" stop-color="#d6de25"/>
      <stop offset="0.364" stop-color="#96c93e"/>
      <stop offset="1" stop-color="#00773c"/>
    </linearGradient>
  </defs>
  <path id="Path_4" data-name="Path 4" d="M622.443,687.874q0,1.282,0,2.564a1.727,1.727,0,0,1-1.953,1.961,27.249,27.249,0,0,1-5.239-.57A27.882,27.882,0,0,1,597.991,680.6a27.17,27.17,0,0,1-4.3-9.162,27.563,27.563,0,0,1-.93-6.795,1.653,1.653,0,0,1,1.766-1.887q2.766-.057,5.533,0a1.636,1.636,0,0,1,1.739,1.67c.1,1.065.139,2.138.292,3.2a12.451,12.451,0,0,0,.57,2.329,1.851,1.851,0,0,1-.461,2.135c-1.094,1.076-2.163,2.177-3.257,3.254a.393.393,0,0,0-.081.57,25.145,25.145,0,0,0,6.306,7.684,25.64,25.64,0,0,0,4.284,2.8.3.3,0,0,0,.279-.036c1.1-1.109,2.2-2.232,3.3-3.339a3.665,3.665,0,0,1,.715-.528,1.369,1.369,0,0,1,1.2-.054,16.271,16.271,0,0,0,4.537.828c.442.025.884.059,1.322.113a1.679,1.679,0,0,1,1.634,1.812v.062Q622.443,686.562,622.443,687.874Z" transform="translate(-592.766 -662.731)" fill="url(#linear-gradient)"/>
</svg>
