<svg xmlns="http://www.w3.org/2000/svg" xmlns:xlink="http://www.w3.org/1999/xlink" width="34.428" height="34.38" viewBox="0 0 34.428 34.38">
  <defs>
    <linearGradient id="linear-gradient" x1="0.953" y1="0.045" x2="0.265" y2="0.735" gradientUnits="objectBoundingBox">
      <stop offset="0" stop-color="#d6de25"/>
      <stop offset="0.364" stop-color="#96c93e"/>
      <stop offset="1" stop-color="#00773c"/>
    </linearGradient>
    <linearGradient id="linear-gradient-2" x1="16.072" y1="-123.483" x2="-33.724" y2="271.545" xlink:href="#linear-gradient"/>
    <linearGradient id="linear-gradient-3" x1="28.563" y1="-126.34" x2="-58.875" y2="268.688" xlink:href="#linear-gradient"/>
    <linearGradient id="linear-gradient-4" x1="322.385" y1="-350.917" x2="-2.291" y2="3.06" xlink:href="#linear-gradient"/>
    <linearGradient id="linear-gradient-5" x1="341.448" y1="-370.897" x2="16.772" y2="-17.242" xlink:href="#linear-gradient"/>
    <linearGradient id="linear-gradient-6" x1="111.556" y1="-72.606" x2="-15.843" y2="11.136" xlink:href="#linear-gradient"/>
    <linearGradient id="linear-gradient-7" x1="53.479" y1="-58.695" x2="-98.442" y2="111.842" xlink:href="#linear-gradient"/>
    <linearGradient id="linear-gradient-8" x1="111.645" y1="-140.576" x2="-21.111" y2="27.524" xlink:href="#linear-gradient"/>
    <linearGradient id="linear-gradient-9" x1="175.183" y1="-156.553" x2="-15.915" y2="15.19" xlink:href="#linear-gradient"/>
    <linearGradient id="linear-gradient-10" x1="326.381" y1="-160.062" x2="-22.194" y2="11.682" xlink:href="#linear-gradient"/>
    <linearGradient id="linear-gradient-11" x1="256.641" y1="-122.835" x2="-102.575" y2="50.133" xlink:href="#linear-gradient"/>
    <linearGradient id="linear-gradient-12" x1="139.588" y1="-363.222" x2="-34.7" y2="92.544" xlink:href="#linear-gradient"/>
    <linearGradient id="linear-gradient-13" x1="176.181" y1="-7517.836" x2="-8.995" y2="406.909" xlink:href="#linear-gradient"/>
    <linearGradient id="linear-gradient-14" x1="35.233" y1="-33.024" x2="-34.219" y2="34.004" xlink:href="#linear-gradient"/>
    <linearGradient id="linear-gradient-15" x1="348.259" y1="-232.989" x2="-135.319" y2="91.688" xlink:href="#linear-gradient"/>
    <linearGradient id="linear-gradient-16" x1="13.998" y1="-12.998" x2="-12.992" y2="13.992" xlink:href="#linear-gradient"/>
    <linearGradient id="linear-gradient-17" x1="219.685" y1="-214.872" x2="-211.294" y2="208.588" xlink:href="#linear-gradient"/>
    <linearGradient id="linear-gradient-18" x1="35.233" y1="-33.615" x2="-34.22" y2="34.604" xlink:href="#linear-gradient"/>
    <linearGradient id="linear-gradient-19" x1="284.422" y1="-288.873" x2="-146.557" y2="150.395" xlink:href="#linear-gradient"/>
    <linearGradient id="linear-gradient-20" x1="535.384" y1="-476.792" x2="61.254" y2="-53.332" xlink:href="#linear-gradient"/>
    <linearGradient id="linear-gradient-21" x1="5.231" y1="-4.323" x2="-4.229" y2="5.325" xlink:href="#linear-gradient"/>
    <linearGradient id="linear-gradient-22" x1="404.51" y1="-280.488" x2="-69.042" y2="48.869" xlink:href="#linear-gradient"/>
    <linearGradient id="linear-gradient-23" x1="202.952" y1="-205.771" x2="-220.047" y2="225.209" xlink:href="#linear-gradient"/>
    <linearGradient id="linear-gradient-24" x1="348.436" y1="-347.444" x2="-82.544" y2="83.535" xlink:href="#linear-gradient"/>
    <linearGradient id="linear-gradient-25" x1="77.49" y1="-81.281" x2="-93.92" y2="100.801" xlink:href="#linear-gradient"/>
    <linearGradient id="linear-gradient-26" x1="558.323" y1="-534.855" x2="74.745" y2="-70.366" xlink:href="#linear-gradient"/>
    <linearGradient id="linear-gradient-27" x1="390.578" y1="-374.138" x2="-92.999" y2="90.35" xlink:href="#linear-gradient"/>
    <linearGradient id="linear-gradient-28" x1="84.011" y1="-100.755" x2="-291.896" y2="355.011" xlink:href="#linear-gradient"/>
    <linearGradient id="linear-gradient-29" x1="88.734" y1="-93.02" x2="-87.718" y2="93.989" xlink:href="#linear-gradient"/>
    <linearGradient id="linear-gradient-30" x1="46.645" y1="-43.989" x2="-45.629" y2="44.967" xlink:href="#linear-gradient"/>
    <linearGradient id="linear-gradient-31" x1="10.978" y1="-9.984" x2="-9.97" y2="10.987" xlink:href="#linear-gradient"/>
    <linearGradient id="linear-gradient-32" x1="454.884" y1="-345.279" x2="16.113" y2="-11.391" xlink:href="#linear-gradient"/>
    <linearGradient id="linear-gradient-33" x1="351.254" y1="-493.919" x2="51.167" y2="-70.92" xlink:href="#linear-gradient"/>
    <linearGradient id="linear-gradient-34" x1="285.954" y1="-390.88" x2="-34.436" y2="48.387" xlink:href="#linear-gradient"/>
    <linearGradient id="linear-gradient-35" x1="436.784" y1="-444.33" x2="-1.987" y2="3.035" xlink:href="#linear-gradient"/>
    <linearGradient id="linear-gradient-36" x1="515.282" y1="-436.372" x2="50.237" y2="-41.344" xlink:href="#linear-gradient"/>
    <linearGradient id="linear-gradient-37" x1="383" y1="-375.198" x2="-55.772" y2="55.782" xlink:href="#linear-gradient"/>
  </defs>
  <g id="_1u5sVk" data-name="1u5sVk" transform="translate(-883.557 -655.874)">
    <g id="Group_5" data-name="Group 5">
      <path id="Path_8" data-name="Path 8" d="M883.557,674.4v-2.685l.073-.065a2.281,2.281,0,0,0,.054-.3c.008-.133-.021-.269-.005-.4.063-.527.138-1.053.209-1.58l.068-.138.133-.667.067-.138.407-1.267.134-.283.153-.462.05-.072.134-.4.135-.141.4-.932c0-.017,0-.034,0-.051.114-.168.235-.331.341-.5a16.613,16.613,0,0,1,2.366-3.105c.652-.653,1.386-1.225,2.083-1.834a13.384,13.384,0,0,1,3.214-1.938,15.124,15.124,0,0,1,2.644-.939c.934-.238,1.9-.33,2.859-.493a1.8,1.8,0,0,0,.344-.131h.067l.264.06.476-.06h1.816a1.375,1.375,0,0,0,.311.131c.774.119,1.559.184,2.323.348a15.587,15.587,0,0,1,5.252,2.2,20.21,20.21,0,0,1,2.216,1.682A14.57,14.57,0,0,1,914,662.1c.69.862,1.274,1.809,1.9,2.719l.051.048c.2.46.43.913.611,1.383a7.117,7.117,0,0,1,.495,1.293c.064.355.284.678.38,1.03a9.549,9.549,0,0,1,.167,1.048c.058.375.113.752.18,1.125.058.324.133.645.2.967V674.4l-.121.063c-.03.329-.038.608-.084.879a17.289,17.289,0,0,1-.418,2.2,26.7,26.7,0,0,1-1.1,2.889,9.181,9.181,0,0,1-1.07,1.967c-.318.411-.53.908-.872,1.294-.68.77-1.4,1.508-2.139,2.222a11.314,11.314,0,0,1-1.476,1.2,20.533,20.533,0,0,1-2.015,1.21,15.3,15.3,0,0,1-2.091.94,19.544,19.544,0,0,1-2.437.643,21.133,21.133,0,0,1-2.284.324c-.522.049-1.056-.03-1.578.021-.5.049-.969-.139-1.475-.1a4.309,4.309,0,0,1-1.388-.2c-.97-.259-1.944-.521-2.889-.859a15.469,15.469,0,0,1-4.473-2.554l-.079-.056c-.082-.073-.16-.153-.247-.22a15.249,15.249,0,0,1-3.1-3.343c-.376-.53-.722-1.08-1.081-1.621,0-.017,0-.034,0-.051l-.538-1.022-.05-.049-.42-1.09c0-.019,0-.038,0-.056l-.469-1.418c0-.02,0-.04,0-.06a4.948,4.948,0,0,1-.242-.847c-.08-.731-.116-1.466-.172-2.2,0-.014-.032-.025-.049-.037ZM908.3,659.885l-.063-.052c-.339-.167-.675-.341-1.018-.5-.27-.124-.55-.229-.837-.347.493.807.982,1.563,1.423,2.346a10.087,10.087,0,0,1,.436,1.108c.229.546.5,1.076.7,1.634.095.27.211.271.433.226.765-.155,1.534-.289,2.3-.445.313-.063.619-.162.95-.251A15.775,15.775,0,0,0,908.3,659.885Zm-15.264,23.308-.054-.071-.551-1.471-3.635.763a15.906,15.906,0,0,0,6.5,4.852,2.214,2.214,0,0,0-.139-.314,12.788,12.788,0,0,1-.809-1.156C893.888,684.942,893.472,684.062,893.037,683.193Zm10.551,3.751.074-.054a17.687,17.687,0,0,0,1.328-1.47,12.93,12.93,0,0,0,1.781-3.441l.049-.073v-.126l.066-.137.105-.232-4.673-.248-.136-.052-.335.008-.055.055v6.711l.128,0A4.6,4.6,0,0,0,903.588,686.944Zm3.359-22.551a.827.827,0,0,1-.114-.161c-.24-.589-.443-1.2-.72-1.766a10.182,10.182,0,0,0-2.567-3.454,5.171,5.171,0,0,0-1.748-.947v6.8c.718,0,1.416.006,2.115,0,.24,0,.479-.048.72-.063.415-.027.832-.042,1.247-.07q.425-.029.845-.082c.041-.005.073-.077.109-.117l.156-.035Zm-7.2,23.494v-6.712l-.054-.056c-.295.018-.59.04-.886.055-1.321.068-2.642.134-3.963.205a1.6,1.6,0,0,0-.306.075l.112.274.053.05a17.853,17.853,0,0,0,.768,1.947,9.663,9.663,0,0,0,2.51,3.289,4.264,4.264,0,0,0,1.711.926ZM899.7,658.1a9.661,9.661,0,0,0-1.259.555,6.721,6.721,0,0,0-1.885,1.865,15.38,15.38,0,0,0-1.983,3.862c-.019.055.027.192.056.2.514.071,1.03.148,1.542.2,1.114.114,2.239.11,3.36.158.207.008.237-.1.236-.274q-.009-3.254-.013-6.506Zm8.539,13.936.056-.055c-.019-.351-.032-.7-.057-1.053-.041-.559-.059-1.122-.143-1.675-.133-.877-.313-1.748-.469-2.6l-5.775.3-.055.056v4.967l.054.054Zm-15,0H899.7l.055-.054v-4.967l-.054-.055-5.78-.332c-.025.1-.076.278-.11.457-.146.788-.313,1.573-.423,2.365-.086.609-.091,1.229-.15,1.842-.01.107-.108.2-.166.307l.117.383Zm-7.683.012h5.657c0-.348-.008-.68.013-1.01.031-.46.071-.92.135-1.376.119-.852.257-1.7.389-2.551.045-.293.1-.586.14-.845-.731-.159-1.419-.3-2.1-.46-.7-.166-1.4-.354-2.122-.538-.357.729-.747,1.43-1.049,2.168a14.192,14.192,0,0,0-.718,2.205C885.724,670.417,885.669,671.221,885.556,672.048Zm24.793,2.027c-.078.776-.133,1.541-.237,2.3-.145,1.063-.316,2.124-.5,3.182-.035.2,0,.245.184.28.637.12,1.272.248,1.9.393s1.276.327,1.919.47a.374.374,0,0,0,.323-.139,17.153,17.153,0,0,0,1-2.112c.335-.977.573-1.989.813-2.995a11.687,11.687,0,0,0,.16-1.379Zm-10.607,4.942v-4.939H893.2a25.41,25.41,0,0,0,.726,5.325Zm10.577-6.988h5.6c-.032-.217-.059-.411-.09-.6-.116-.719-.182-1.45-.362-2.153A14.987,14.987,0,0,0,914,665.611a.334.334,0,0,0-.455-.179c-.48.134-.963.266-1.45.373-.833.184-1.671.348-2.511.521A29.366,29.366,0,0,1,910.319,672.029Zm-8.527,7.131c.7,0,1.374-.008,2.05,0,.421.007.843.028,1.262.069.718.072,1.433.175,2.152.236.118.01.342-.105.361-.2.159-.765.294-1.537.412-2.31.07-.456.1-.917.143-1.377.049-.5.1-1,.144-1.508h-6.524Zm-16.217-5.088a1.322,1.322,0,0,0,0,.2c.088.581.148,1.168.276,1.74a18.211,18.211,0,0,0,.608,2.242c.264.727.653,1.409.961,2.121.113.261.251.294.5.231.82-.2,1.646-.386,2.469-.573.5-.114,1.007-.224,1.426-.316l-.729-5.645ZM906.2,687.2a15.107,15.107,0,0,0,6.382-4.66.721.721,0,0,0-.163-.084c-1.026-.229-2.052-.459-3.082-.676-.209-.044-.415-.038-.441.277a1.851,1.851,0,0,1-.162.523,16.664,16.664,0,0,1-2.006,3.826C906.544,686.657,906.386,686.923,906.2,687.2Zm-11.1-28.179a14.587,14.587,0,0,0-6.193,4.531l3.551.779A18.994,18.994,0,0,1,895.1,659.025Z" fill="url(#linear-gradient)"/>
      <path id="Path_9" data-name="Path 9" d="M900.233,655.874l-.476.06a.111.111,0,0,0,.005-.06Z" fill="url(#linear-gradient-2)"/>
      <path id="Path_10" data-name="Path 10" d="M900.7,655.874h0Z" fill="#fff"/>
      <path id="Path_11" data-name="Path 11" d="M899.762,655.874a.111.111,0,0,1-.005.06l-.264-.06Z" fill="url(#linear-gradient-3)"/>
      <path id="Path_12" data-name="Path 12" d="M917.985,673.323v0Z" fill="#fff"/>
      <path id="Path_13" data-name="Path 13" d="M883.557,671.846v0Z" fill="#fff"/>
      <path id="Path_14" data-name="Path 14" d="M901.981,655.874h0Z" fill="#fff"/>
      <path id="Path_15" data-name="Path 15" d="M917.985,674.2v0Z" fill="#fff"/>
      <path id="Path_16" data-name="Path 16" d="M883.557,672.786v0Z" fill="#fff"/>
      <path id="Path_17" data-name="Path 17" d="M883.557,673.994v0Z" fill="#fff"/>
      <path id="Path_18" data-name="Path 18" d="M883.557,673.122v0Z" fill="#fff"/>
      <path id="Path_19" data-name="Path 19" d="M917.985,672.92v0Z" fill="#fff"/>
      <path id="Path_20" data-name="Path 20" d="M883.557,671.645l.073,0-.073.065Z" fill="url(#linear-gradient-4)"/>
      <path id="Path_21" data-name="Path 21" d="M883.63,674.462l-.073,0V674.4Z" fill="url(#linear-gradient-5)"/>
      <path id="Path_22" data-name="Path 22" d="M884.563,667.155l-.052-.209.054-.055.132-.019Z" fill="url(#linear-gradient-6)"/>
      <path id="Path_23" data-name="Path 23" d="M906.834,664.532l.113-.139.043.1Z" fill="url(#linear-gradient-7)"/>
      <path id="Path_24" data-name="Path 24" d="M885.034,665.942c-.072-.12-.072-.12.135-.141Z" fill="url(#linear-gradient-8)"/>
      <path id="Path_25" data-name="Path 25" d="M884.089,668.56l-.057-.088.124-.05Z" fill="url(#linear-gradient-9)"/>
      <path id="Path_26" data-name="Path 26" d="M883.888,669.365l.068-.138Z" fill="url(#linear-gradient-10)"/>
      <path id="Path_27" data-name="Path 27" d="M906.82,681.78l.066-.137Z" fill="url(#linear-gradient-11)"/>
      <path id="Path_28" data-name="Path 28" d="M902.318,681.163l-.136-.052Z" fill="url(#linear-gradient-12)"/>
      <path id="Path_29" data-name="Path 29" d="M901.793,687.885l.128,0Z" fill="url(#linear-gradient-13)"/>
      <path id="Path_30" data-name="Path 30" d="M899.75,681.175l-.054-.056Z" fill="url(#linear-gradient-14)"/>
      <path id="Path_31" data-name="Path 31" d="M906.771,681.979l.049-.073Z" fill="url(#linear-gradient-15)"/>
      <path id="Path_32" data-name="Path 32" d="M893.184,671.981l.055.055Z" fill="url(#linear-gradient-16)"/>
      <path id="Path_33" data-name="Path 33" d="M901.847,666.958l-.055.056Z" fill="url(#linear-gradient-17)"/>
      <path id="Path_34" data-name="Path 34" d="M899.75,667.014l-.054-.055Z" fill="url(#linear-gradient-18)"/>
      <path id="Path_35" data-name="Path 35" d="M899.7,672.035l.055-.054Z" fill="url(#linear-gradient-19)"/>
      <path id="Path_36" data-name="Path 36" d="M884.566,679.079l-.05-.007.048-.049C884.565,679.041,884.566,679.06,884.566,679.079Z" fill="url(#linear-gradient-20)"/>
      <path id="Path_37" data-name="Path 37" d="M885.036,680.218l-.05-.049Z" fill="url(#linear-gradient-21)"/>
      <path id="Path_38" data-name="Path 38" d="M884.85,666.41l.05-.072Z" fill="url(#linear-gradient-22)"/>
      <path id="Path_39" data-name="Path 39" d="M908.235,672.036l.056-.055Z" fill="url(#linear-gradient-23)"/>
      <path id="Path_40" data-name="Path 40" d="M901.847,681.119l-.055.055Z" fill="url(#linear-gradient-24)"/>
      <path id="Path_41" data-name="Path 41" d="M915.9,664.818l.051.048Z" fill="url(#linear-gradient-25)"/>
      <path id="Path_42" data-name="Path 42" d="M885.575,681.291l-.049-.005.048-.046C885.575,681.257,885.575,681.274,885.575,681.291Z" fill="url(#linear-gradient-26)"/>
      <path id="Path_43" data-name="Path 43" d="M885.574,664.869l-.048-.046.049-.005C885.575,664.835,885.575,664.852,885.574,664.869Z" fill="url(#linear-gradient-27)"/>
      <path id="Path_44" data-name="Path 44" d="M908.3,659.885l-.063-.052Z" fill="url(#linear-gradient-28)"/>
      <path id="Path_45" data-name="Path 45" d="M894.653,681.728l.053.05Z" fill="url(#linear-gradient-29)"/>
      <path id="Path_46" data-name="Path 46" d="M899.75,658.156l-.054-.056Z" fill="url(#linear-gradient-30)"/>
      <path id="Path_47" data-name="Path 47" d="M901.792,671.981l.054.054Z" fill="url(#linear-gradient-31)"/>
      <path id="Path_48" data-name="Path 48" d="M893.037,683.193l-.054-.071Z" fill="url(#linear-gradient-32)"/>
      <path id="Path_49" data-name="Path 49" d="M890.079,686.531l-.079-.056Z" fill="url(#linear-gradient-33)"/>
      <path id="Path_50" data-name="Path 50" d="M903.588,686.944l.074-.054Z" fill="url(#linear-gradient-34)"/>
      <path id="Path_51" data-name="Path 51" d="M899.7,687.94l.054-.053Z" fill="url(#linear-gradient-35)"/>
      <path id="Path_52" data-name="Path 52" d="M884.095,677.6l-.051-.009.049-.051C884.095,677.565,884.095,677.585,884.095,677.6Z" fill="url(#linear-gradient-36)"/>
      <path id="Path_53" data-name="Path 53" d="M884.565,666.891l-.054.055Z" fill="url(#linear-gradient-37)"/>
    </g>
  </g>
</svg>
