<svg xmlns="http://www.w3.org/2000/svg" width="27.48" height="26.154" viewBox="0 0 27.48 26.154">
  <path id="Path_16" data-name="Path 16" d="M857.591,3315.626c.791.058,1.591.059,2.37.185a14.437,14.437,0,0,1,8.811,4.545,9.913,9.913,0,0,1,2.377,4.666,8.911,8.911,0,0,1-1.429,6.907,17.817,17.817,0,0,1-3.134,3.486,48.367,48.367,0,0,1-6.73,4.919c-.728.45-1.484.859-2.244,1.253a2.3,2.3,0,0,1-.8.19.366.366,0,0,1-.434-.391,3.18,3.18,0,0,1,.088-.719,8.437,8.437,0,0,0,.162-1.876.808.808,0,0,0-.526-.757,5.647,5.647,0,0,0-1.576-.373,14.347,14.347,0,0,1-7.755-4.02,10.249,10.249,0,0,1-2.459-4.053,8.8,8.8,0,0,1-.45-2.931,9.391,9.391,0,0,1,1.153-4.286,12.313,12.313,0,0,1,5.882-5.279,16.838,16.838,0,0,1,3.918-1.209A19.445,19.445,0,0,1,857.591,3315.626Zm-.069,10.859.046-.013c.063.093.121.189.188.28q.924,1.251,1.85,2.5c.23.311.454.625.692.929a.722.722,0,0,0,.809.247.657.657,0,0,0,.489-.612,2.584,2.584,0,0,0,.019-.363q.008-2.48.011-4.96a2.116,2.116,0,0,0-.013-.3.726.726,0,0,0-.743-.659.706.706,0,0,0-.7.766q0,1.514,0,3.027v.247a.5.5,0,0,1-.077-.056q-.929-1.26-1.857-2.522c-.293-.4-.58-.8-.889-1.183a.708.708,0,0,0-.829-.225.862.862,0,0,0-.477.725c.015,1.8.007,3.607.007,5.41a.724.724,0,0,0,.667.732.7.7,0,0,0,.767-.612,2.146,2.146,0,0,0,.02-.321c0-.959.005-1.918.008-2.877C857.511,3326.593,857.518,3326.539,857.522,3326.485Zm6.5-.206c0-.415,0-.807.007-1.2,0-.035.1-.095.159-.1.665-.017,1.329-.018,1.994-.037a.54.54,0,0,0,.524-.429.738.738,0,0,0-.775-.978c-.822-.01-1.645,0-2.467,0a.8.8,0,0,0-.894.918c.022,1.638.007,3.276.008,4.914,0,.143-.007.287,0,.429a.653.653,0,0,0,.626.642c.951.007,1.9.009,2.853,0a.626.626,0,0,0,.629-.4.7.7,0,0,0-.655-1.02c-.421-.012-.843,0-1.265,0-.24,0-.48-.019-.721-.028-.008-.242-.018-.483-.023-.725,0-.182,0-.364,0-.549.694,0,1.343.005,1.992,0a.892.892,0,0,0,.39-.086.7.7,0,0,0,.316-.816.652.652,0,0,0-.66-.534C865.4,3326.276,864.733,3326.279,864.02,3326.279Zm-13.809,2.744v-.264q0-2.211,0-4.421a.732.732,0,0,0-1.108-.67.617.617,0,0,0-.316.592q0,2.736,0,5.473c0,.021,0,.043,0,.064a.648.648,0,0,0,.671.644q1.405.018,2.811,0a.634.634,0,0,0,.656-.632.609.609,0,0,0-.524-.751,1.812,1.812,0,0,0-.4-.035C851.414,3329.021,850.829,3329.023,850.211,3329.023Zm4.816-1.963h-.008v-2.1c0-.25.016-.5,0-.75a.7.7,0,0,0-.684-.641.654.654,0,0,0-.694.616,3.292,3.292,0,0,0-.027.385q0,2.372-.005,4.744a2.105,2.105,0,0,0,.049.6.875.875,0,0,0,.284.424.674.674,0,0,0,.768.027.685.685,0,0,0,.32-.678C855.025,3328.806,855.027,3327.933,855.027,3327.06Z" transform="translate(-843.857 -3315.626)" fill="#fff"/>
</svg>
