<svg xmlns="http://www.w3.org/2000/svg" xmlns:xlink="http://www.w3.org/1999/xlink" width="16.87" height="29.941" viewBox="0 0 16.87 29.941">
  <defs>
    <linearGradient id="linear-gradient" x1="1.33" y1="0.104" x2="0.428" y2="0.612" gradientUnits="objectBoundingBox">
      <stop offset="0" stop-color="#d6de25"/>
      <stop offset="0.364" stop-color="#96c93e"/>
      <stop offset="1" stop-color="#00773c"/>
    </linearGradient>
  </defs>
  <path id="Path_7" data-name="Path 7" d="M897.963,740.652c0-.744,0-1.433,0-2.122a11.662,11.662,0,0,1,1.114-5.234,6.552,6.552,0,0,1,5.873-3.856c1.3-.07,2.6-.013,3.9-.023.253,0,.349.079.348.345q-.009,2.457.01,4.915c0,.267-.072.368-.36.363-1.089-.018-2.178-.011-3.267-.007a3.672,3.672,0,0,0-.663.053,1.438,1.438,0,0,0-1.314,1.453c-.044,1.3-.02,2.6-.026,3.9,0,.27.194.212.348.213q2.388.006,4.777.007c.489,0,.49,0,.491.475q0,2.336.01,4.669c0,.469,0,.469-.455.469h-4.882c-.08,0-.16.01-.291.018v.416l.006,12.146c0,.5,0,.5-.5.5q-2.317,0-4.636,0c-.479,0-.48,0-.481-.469q0-6.091.005-12.182c0-.331-.078-.436-.424-.432-1.6.018-3.208,0-4.812.013-.3,0-.4-.069-.4-.39.017-1.627.012-3.253,0-4.88,0-.281.08-.359.358-.357,1.639.012,3.278.005,4.918,0Z" transform="translate(-892.336 -729.405)" fill="url(#linear-gradient)"/>
</svg>
