<svg xmlns="http://www.w3.org/2000/svg" xmlns:xlink="http://www.w3.org/1999/xlink" width="31.202" height="29.669" viewBox="0 0 31.202 29.669">
  <defs>
    <linearGradient id="linear-gradient" x1="0.913" y1="-0.007" x2="0.223" y2="0.717" gradientUnits="objectBoundingBox">
      <stop offset="0" stop-color="#d6de25"/>
      <stop offset="0.364" stop-color="#96c93e"/>
      <stop offset="1" stop-color="#00773c"/>
    </linearGradient>
  </defs>
  <path id="Path_3" data-name="Path 3" d="M607.836,732.2a13.59,13.59,0,0,1,3.946.442,16.5,16.5,0,0,1,7.027,3.416,12.171,12.171,0,0,1,3.74,5.2,9.957,9.957,0,0,1,.258,6.333,12.832,12.832,0,0,1-2.986,5.044,39.159,39.159,0,0,1-7.227,5.986c-1.365.92-2.781,1.767-4.191,2.617a9.485,9.485,0,0,1-1.334.576.783.783,0,0,1-.288.033c-.408,0-.608-.189-.567-.6.036-.37.155-.732.185-1.1.051-.63.081-1.263.081-1.894,0-.343-.288-.5-.558-.647a6.043,6.043,0,0,0-1.787-.431,16.285,16.285,0,0,1-8.811-4.555,11.651,11.651,0,0,1-2.8-4.6,9.917,9.917,0,0,1-.518-3.328,10.707,10.707,0,0,1,1.315-4.89,13.983,13.983,0,0,1,6.683-5.99,19.085,19.085,0,0,1,4.45-1.371A17.23,17.23,0,0,1,607.836,732.2Zm2.7,13.518a1.143,1.143,0,0,1-.117-.11q-1.135-1.539-2.269-3.079c-.27-.365-.533-.737-.822-1.088a.8.8,0,0,0-.942-.251.872.872,0,0,0-.531.824q0,3.072,0,6.143a.824.824,0,0,0,1.207.739.846.846,0,0,0,.443-.875q.006-1.657.01-3.315c0-.08.007-.16.011-.24a1.5,1.5,0,0,1,.268.315q1.056,1.431,2.115,2.859c.261.353.515.711.788,1.054a.81.81,0,0,0,.88.266.733.733,0,0,0,.569-.655,2.36,2.36,0,0,0,.029-.412q0-2.414,0-4.827c0-.349.016-.7.01-1.048a.827.827,0,0,0-.333-.723.815.815,0,0,0-.874-.072.768.768,0,0,0-.442.751Zm4.371-1.476c0-.47-.005-.915.008-1.359,0-.041.116-.11.179-.111.755-.019,1.51-.02,2.264-.042a.621.621,0,0,0,.6-.509.836.836,0,0,0-.885-1.088c-.934-.012-1.868-.005-2.8,0a.909.909,0,0,0-1.016,1.041c.025,1.835.008,3.671.008,5.507,0,.187-.008.374.005.56a.74.74,0,0,0,.71.73c1.08.008,2.16.01,3.24,0a.714.714,0,0,0,.715-.453.8.8,0,0,0-.743-1.158c-.487-.014-.974,0-1.462,0-.264,0-.631.079-.765-.059s-.05-.505-.055-.771c0-.215,0-.43,0-.65h1.142c.374,0,.747.01,1.12,0a1.055,1.055,0,0,0,.443-.1.8.8,0,0,0,.359-.926.741.741,0,0,0-.75-.606C616.467,744.242,615.712,744.245,614.9,744.245Zm-15.682,3.116v-.288q0-2.509,0-5.02a.871.871,0,0,0-.806-.9.757.757,0,0,0-.812.833q-.012,3.07,0,6.142a.762.762,0,0,0,.874.846q1.5,0,3,0a.757.757,0,0,0,.838-.781.729.729,0,0,0-.756-.825c-.12-.012-.243-.009-.365-.009C600.55,747.36,599.909,747.361,599.221,747.361Zm5.469-2.246h-.009v-2.389c0-.284.019-.57,0-.852a.79.79,0,0,0-.767-.712.744.744,0,0,0-.795.692,3.37,3.37,0,0,0-.031.437q-.006,2.706-.006,5.412a2.278,2.278,0,0,0,.054.652,1.008,1.008,0,0,0,.317.485.783.783,0,0,0,1.242-.727Q604.688,746.615,604.69,745.115Z" transform="translate(-592.003 -732.181)" fill="url(#linear-gradient)"/>
</svg>
