<svg xmlns="http://www.w3.org/2000/svg" xmlns:xlink="http://www.w3.org/1999/xlink" width="31.878" height="31.879" viewBox="0 0 31.878 31.879">
  <defs>
    <linearGradient id="linear-gradient" x1="1.042" y1="-0.043" x2="0.252" y2="0.748" gradientUnits="objectBoundingBox">
      <stop offset="0" stop-color="#d6de25"/>
      <stop offset="0.364" stop-color="#96c93e"/>
      <stop offset="1" stop-color="#00773c"/>
    </linearGradient>
    <linearGradient id="linear-gradient-2" x1="1.552" y1="-0.552" x2="0.018" y2="0.982" xlink:href="#linear-gradient"/>
    <linearGradient id="linear-gradient-3" x1="2.6" y1="-1.61" x2="-3.455" y2="4.476" xlink:href="#linear-gradient"/>
  </defs>
  <g id="lzByTr" transform="translate(-594.082 -798.388)">
    <g id="Group_6" data-name="Group 6">
      <path id="Path_54" data-name="Path 54" d="M601.989,798.388h16.064a8.3,8.3,0,0,0,1.172.248,8.755,8.755,0,0,1,6.149,5.4,10.628,10.628,0,0,1,.586,2.449v15.69c-.043.242-.089.484-.127.727a8.346,8.346,0,0,1-1.965,4.248,8.73,8.73,0,0,1-6.93,3.12q-6.848-.009-13.694,0a11.322,11.322,0,0,1-1.734-.117,8.49,8.49,0,0,1-4.88-2.5,8.708,8.708,0,0,1-2.548-6.337q0-6.972,0-13.943a8.816,8.816,0,0,1,6.291-8.61C600.905,798.589,601.462,798.559,601.989,798.388Zm21.133,15.932h0q0-3.454,0-6.909a5.928,5.928,0,0,0-.507-2.626,5.824,5.824,0,0,0-5.579-3.55c-4.668-.023-9.337-.006-14-.011a5.99,5.99,0,0,0-6.117,6.163q0,6.955,0,13.911a6,6,0,0,0,6.2,6.139c4.482-.01,8.963,0,13.445-.005a9.758,9.758,0,0,0,1.517-.083,5.832,5.832,0,0,0,4.106-2.677,5.987,5.987,0,0,0,.941-3.412C623.116,818.946,623.122,816.633,623.122,814.32Z" fill="url(#linear-gradient)"/>
      <path id="Path_55" data-name="Path 55" d="M618.236,814.286a8.216,8.216,0,1,1-8.261-8.175A8.231,8.231,0,0,1,618.236,814.286Zm-2.849.047a5.369,5.369,0,1,0-5.364,5.367A5.368,5.368,0,0,0,615.387,814.333Z" fill="url(#linear-gradient-2)"/>
      <path id="Path_56" data-name="Path 56" d="M618.554,807.855a2.071,2.071,0,0,1,.018-4.142,2.1,2.1,0,0,1,2.09,2.1A2.082,2.082,0,0,1,618.554,807.855Z" fill="url(#linear-gradient-3)"/>
    </g>
  </g>
</svg>
