<svg xmlns="http://www.w3.org/2000/svg" width="27.202" height="27.249" viewBox="0 0 27.202 27.249">
  <path id="Path_20" data-name="Path 20" d="M1045.862,3254.9a13.625,13.625,0,1,1,13.621-13.618A13.627,13.627,0,0,1,1045.862,3254.9Zm3.634-10.767c.042-.422.062-.826.124-1.225a14.525,14.525,0,0,0-.1-4.3c-.02-.138-.064-.187-.209-.187q-3.434,0-6.866-.014c-.148,0-.214.047-.225.206-.053.789-.169,1.579-.163,2.368.008,1.046.108,2.091.169,3.148Zm-9.2-5.695a1.265,1.265,0,0,0-.165-.024c-1.78,0-3.559.005-5.339,0-.177,0-.261.051-.3.231a11.124,11.124,0,0,0-.208,3.819c.075.556.135,1.115.2,1.66h5.814A23.379,23.379,0,0,1,1040.3,3238.435Zm16.976,5.695c.067-.568.126-1.139.2-1.706a11.185,11.185,0,0,0-.2-3.742c-.045-.223-.144-.266-.344-.265-1.651.007-3.3.005-4.953.006h-.5a25.553,25.553,0,0,1-.005,5.707Zm-9.195,8.568.043.068a11.522,11.522,0,0,0,5.594-2.8,11.39,11.39,0,0,0,2.843-3.914,1.174,1.174,0,0,0-.159-.034c-1.7,0-3.405,0-5.107,0a.262.262,0,0,0-.3.24c-.055.252-.113.5-.189.75a20.277,20.277,0,0,1-2.2,4.872C1048.434,3252.153,1048.257,3252.425,1048.081,3252.7Zm-12.886-6.656a11.72,11.72,0,0,0,8.53,6.737c-.051-.095-.075-.15-.108-.2a19.522,19.522,0,0,1-2.844-6.338c-.042-.174-.129-.225-.308-.224-1.659,0-3.319,0-4.978,0C1035.412,3246.016,1035.337,3246.028,1035.195,3246.042Zm15.957-9.546h5.424a11.656,11.656,0,0,0-4.921-5.429,10.383,10.383,0,0,0-3.571-1.272,19.131,19.131,0,0,1,1.771,3.212C1050.318,3234.14,1050.712,3235.3,1051.152,3236.5Zm-7.472-6.7a11.053,11.053,0,0,0-4.689,2,11.632,11.632,0,0,0-3.794,4.7h5.51A20.832,20.832,0,0,1,1043.68,3229.795Zm-1.02,16.238a18.248,18.248,0,0,0,3.224,6.469,18.144,18.144,0,0,0,3.221-6.469Zm0-9.538h6.454a18.234,18.234,0,0,0-3.228-6.461A18.236,18.236,0,0,0,1042.658,3236.5Z" transform="translate(-1032.281 -3227.648)" fill="#fff"/>
</svg>
