<svg xmlns="http://www.w3.org/2000/svg" width="10.583" height="22.738" viewBox="0 0 10.583 22.738">
  <g id="UNRTWg.tif" transform="translate(-852.305 -3273.007)">
    <g id="Group_5" data-name="Group 5">
      <path id="Path_3" data-name="Path 3" d="M858.979,3273.007h3.906a.139.139,0,0,0-.006.058v3.808a.045.045,0,0,1-.045.048l-.049,0c-.7.006-1.408-.011-2.112.009a1.712,1.712,0,0,0-.376.044,1.589,1.589,0,0,0-.4.117.735.735,0,0,0-.271.206,1.65,1.65,0,0,0-.148.26.342.342,0,0,0-.014.043,2.7,2.7,0,0,0-.073.606c-.012.362-.01.724-.011,1.085s0,.717,0,1.076c0,.086,0,.089.09.089h3.254c.033,0,.066,0,.1,0,.055,0,.065.015.064.07,0,.087-.018.171-.026.257-.015.144-.018.29-.041.433-.033.207-.037.415-.066.622-.036.257-.061.516-.089.775-.021.2-.039.394-.058.591s-.04.4-.062.6c-.017.156-.04.311-.055.468-.01.1-.005.1-.105.1h-2.959c-.032,0-.049.011-.045.045a4.028,4.028,0,0,1,0,.426c0,.316,0,.633,0,.949q0,3.5,0,7v2.883c0,.065,0,.065-.065.065h-4.087c-.014,0-.028,0-.041,0-.033,0-.047-.014-.045-.046V3284.44c0-.062,0-.062-.064-.062H852.4c-.092,0-.09.014-.09-.09q0-1.856,0-3.709c0-.119,0-.12.122-.12h2.637c.072,0,.079-.008.078-.077,0-.513,0-1.026,0-1.539s0-1.014.021-1.52c.009-.216.039-.43.054-.646a3.581,3.581,0,0,1,.075-.447,4.619,4.619,0,0,1,.446-1.364,3.678,3.678,0,0,1,.29-.459,2.4,2.4,0,0,1,.362-.393,4.12,4.12,0,0,1,.4-.312,3.279,3.279,0,0,1,.63-.319,3.759,3.759,0,0,1,.747-.215c.193-.03.384-.078.58-.093.11-.009.22-.03.331-.04C859.045,3273.021,859.008,3273.027,858.979,3273.007Z" fill="#fff"/>
    </g>
  </g>
</svg>
