<svg xmlns="http://www.w3.org/2000/svg" width="18.35" height="29.534" viewBox="0 0 18.35 29.534">
  <path id="Path_53" data-name="Path 53" d="M1045.877,3343.49c-.7-.984-1.4-1.932-2.065-2.9a53.459,53.459,0,0,1-5.1-9.156,24.3,24.3,0,0,1-1.943-7.127,9.326,9.326,0,0,1,5.6-9.613,8.488,8.488,0,0,1,4.965-.594,9.015,9.015,0,0,1,7.273,6.279,10.388,10.388,0,0,1,.2,5.442,30.98,30.98,0,0,1-3.037,8.417,58.3,58.3,0,0,1-5.663,8.969C1046.044,3343.291,1045.972,3343.374,1045.877,3343.49Zm4.364-20.2a4.318,4.318,0,0,0-4.291-4.382,4.4,4.4,0,0,0-.034,8.807A4.319,4.319,0,0,0,1050.241,3323.29Z" transform="translate(-1036.723 -3313.956)" fill="#fff"/>
</svg>
