<svg xmlns="http://www.w3.org/2000/svg" width="23.257" height="23.273" viewBox="0 0 23.257 23.273">
  <path id="Path_17" data-name="Path 17" d="M859.92,3246.981c.282-.359.561-.714.839-1.07s.56-.729.845-1.09a1.553,1.553,0,0,1,1.707-.614,2.027,2.027,0,0,1,.422.176q2.2,1.131,4.4,2.266a2.054,2.054,0,0,1,.755.574,1.388,1.388,0,0,1,.106,1.661c-.386.632-.79,1.252-1.187,1.876q-.363.575-.731,1.145a2.417,2.417,0,0,1-2.447,1.2,17.591,17.591,0,0,1-2.289-.322,17.208,17.208,0,0,1-2.566-.867,24.285,24.285,0,0,1-9.477-7.41,22.047,22.047,0,0,1-3.428-5.94,14.034,14.034,0,0,1-.9-4.266,2.326,2.326,0,0,1,1.055-2.166c1-.685,2.007-1.36,3.029-2.012a1.505,1.505,0,0,1,2.234.621c.375.71.738,1.427,1.1,2.142.436.851.86,1.708,1.308,2.552a1.509,1.509,0,0,1-.394,1.913c-.453.373-.923.725-1.385,1.088-.251.2-.505.391-.749.6a.2.2,0,0,0-.047.178,19.14,19.14,0,0,0,2.348,3.461,18.3,18.3,0,0,0,5.132,4.132C859.708,3246.86,859.806,3246.917,859.92,3246.981Z" transform="translate(-845.968 -3229.853)" fill="#fff"/>
</svg>
