<svg xmlns="http://www.w3.org/2000/svg" xmlns:xlink="http://www.w3.org/1999/xlink" width="30.663" height="22.972" viewBox="0 0 30.663 22.972">
  <defs>
    <linearGradient id="linear-gradient" x1="1.016" y1="-0.517" x2="0.318" y2="0.788" gradientUnits="objectBoundingBox">
      <stop offset="0" stop-color="#d6de25"/>
      <stop offset="0.364" stop-color="#96c93e"/>
      <stop offset="1" stop-color="#00773c"/>
    </linearGradient>
    <linearGradient id="linear-gradient-2" x1="0.835" y1="-0.489" x2="0.136" y2="0.911" xlink:href="#linear-gradient"/>
  </defs>
  <g id="Group_4" data-name="Group 4" transform="translate(-885.44 -807.27)">
    <path id="Path_5" data-name="Path 5" d="M885.457,813.842l1.584,1.233,9.77,7.591c.372.289.743.578,1.117.865a4.632,4.632,0,0,0,4.212.775,4.832,4.832,0,0,0,1.709-.936q5.571-4.338,11.143-8.672c.357-.277.717-.552,1.1-.845.005.085.012.153.012.22q0,6.531,0,13.063a2.923,2.923,0,0,1-1.627,2.8,3.007,3.007,0,0,1-1.414.306q-12.264.009-24.527,0a2.934,2.934,0,0,1-2.7-1.472,3,3,0,0,1-.388-1.56q-.012-6.567,0-13.135C885.441,814,885.45,813.936,885.457,813.842Z" fill="url(#linear-gradient)"/>
    <path id="Path_6" data-name="Path 6" d="M900.759,807.27h12.165a3.057,3.057,0,0,1,2.505,1.068,2.6,2.6,0,0,1-.227,3.677c-.69.613-1.445,1.154-2.175,1.722q-5.137,4-10.275,7.991a3.266,3.266,0,0,1-1.747.817,2.356,2.356,0,0,1-1.634-.409c-.836-.613-1.65-1.255-2.469-1.891q-5.085-3.945-10.168-7.893a2.919,2.919,0,0,1-1.216-1.711,2.829,2.829,0,0,1,2.174-3.27,5.822,5.822,0,0,1,1.045-.1Q894.748,807.264,900.759,807.27Z" fill="url(#linear-gradient-2)"/>
  </g>
</svg>
